<?xml version="1.0" encoding="utf-8"?>
<!-- Generator: Adobe Illustrator 27.1.1, SVG Export Plug-In . SVG Version: 6.00 Build 0)  -->
<svg version="1.1" id="Layer_1" xmlns="http://www.w3.org/2000/svg" xmlns:xlink="http://www.w3.org/1999/xlink" x="0px" y="0px"
	 viewBox="0 0 134 90.9" style="enable-background:new 0 0 134 90.9;" xml:space="preserve">
<g>
	<polygon style="fill:#8DB742;" points="134,81.5 59.1,81.5 0,81.5 0,0 134,0 	"/>
	<polyline style="fill:#8DB742;" points="56.9,90.9 70.7,81.5 59.1,81.5 	"/>
</g>
<g>
	<path style="fill-rule:evenodd;clip-rule:evenodd;fill:#2D5638;" d="M55.2,10.9c2.4-1.4,5.5-0.6,7,1.9c0.1,0.1,0.2,0.3,0.2,0.4
		c0-0.1,0-0.3,0-0.4c0-2.8,2.3-5.1,5.1-5.1s5.1,2.3,5.1,5.1c0,0.2,0,0.3,0,0.5c0.1-0.1,0.1-0.2,0.2-0.3c1.4-2.4,4.5-3.3,7-1.9
		c2.4,1.4,3.3,4.5,1.9,7c-0.1,0.1-0.2,0.3-0.3,0.4c0.1-0.1,0.2-0.1,0.3-0.2c2.4-1.4,5.5-0.6,7,1.9c1.4,2.4,0.6,5.5-1.9,7
		c-0.1,0.1-0.3,0.2-0.4,0.2c0.1,0,0.3,0,0.4,0c2.8,0,5.1,2.3,5.1,5.1s-2.3,5.1-5.1,5.1c-0.2,0-0.3,0-0.5,0c0.1,0.1,0.2,0.1,0.3,0.2
		c2.4,1.4,3.3,4.5,1.9,7c-1.4,2.4-4.5,3.3-7,1.9c-0.1-0.1-0.3-0.2-0.4-0.3c0.1,0.1,0.1,0.2,0.2,0.3c1.4,2.4,0.6,5.5-1.9,7
		c-2.4,1.4-5.5,0.6-7-1.9c-0.1-0.1-0.2-0.3-0.2-0.4c0,0.1,0,0.3,0,0.4c0,2.8-2.3,5.1-5.1,5.1c-2.8,0-5.1-2.3-5.1-5.1
		c0-0.2,0-0.3,0-0.5c-0.1,0.1-0.1,0.2-0.2,0.3c-1.4,2.4-4.5,3.3-7,1.9c-2.4-1.4-3.3-4.5-1.9-7c0.1-0.1,0.2-0.3,0.3-0.4
		c-0.1,0.1-0.2,0.1-0.3,0.2c-2.4,1.4-5.5,0.6-7-1.9c-1.4-2.4-0.6-5.5,1.9-7c0.1-0.1,0.3-0.2,0.4-0.2c-0.1,0-0.3,0-0.4,0
		c-2.8,0-5.1-2.3-5.1-5.1s2.3-5.1,5.1-5.1c0.2,0,0.3,0,0.5,0c-0.1-0.1-0.2-0.1-0.3-0.2c-2.4-1.4-3.3-4.5-1.9-7
		c1.4-2.4,4.5-3.3,7-1.9c0.1,0.1,0.3,0.2,0.4,0.3c-0.1-0.1-0.1-0.2-0.2-0.3C52,15.4,52.8,12.3,55.2,10.9L55.2,10.9z"/>
	<path style="fill-rule:evenodd;clip-rule:evenodd;fill:#8DB742;" d="M64.3,20.3c0.1,0,0.1,0,0.2-0.1h0c0.2,0,0.4-0.1,0.5-0.1h0
		c0.1,0,0.1,0,0.2,0h0.1c0.5-0.1,0.9-0.1,1.4-0.1H67l0,0.2c-0.6,6.2-5.6,11-11.8,11.2h-0.2l0-0.2c0-0.5,0.1-0.9,0.2-1.4v-0.1
		c0-0.1,0-0.1,0-0.2v-0.1c0-0.2,0.1-0.4,0.1-0.5v0c0-0.1,0-0.2,0.1-0.2l0-0.1c0-0.1,0-0.1,0.1-0.2l0-0.1c0-0.1,0-0.1,0.1-0.2l0-0.1
		c0-0.1,0-0.1,0.1-0.2c0,0,0,0,0-0.1c0-0.1,0.1-0.2,0.1-0.2l0,0c0-0.1,0.1-0.2,0.1-0.3l0,0c0-0.1,0.1-0.2,0.1-0.2l0-0.1
		c0-0.1,0.1-0.1,0.1-0.2l0-0.1c0-0.1,0.1-0.1,0.1-0.2l0-0.1c0-0.1,0.1-0.1,0.1-0.2l0-0.1c0-0.1,0.1-0.1,0.1-0.2v0
		c0.1-0.2,0.2-0.3,0.3-0.5l0-0.1c0-0.1,0.1-0.1,0.1-0.2l0-0.1c0-0.1,0.1-0.1,0.1-0.2l0-0.1c0-0.1,0.1-0.1,0.1-0.2l0-0.1
		c0-0.1,0.1-0.1,0.1-0.2l0,0c0.1-0.1,0.2-0.3,0.3-0.4l0,0c0-0.1,0.1-0.1,0.1-0.2L58,24c0,0,0.1-0.1,0.1-0.1l0.1-0.1
		c0,0,0.1-0.1,0.1-0.1l0.1-0.1c0,0,0.1-0.1,0.1-0.1l0,0c0.1-0.1,0.3-0.2,0.4-0.4l0,0c0.1,0,0.1-0.1,0.2-0.1l0,0c0,0,0.1-0.1,0.1-0.1
		l0.1-0.1c0,0,0.1-0.1,0.1-0.1l0.1-0.1c0.1,0,0.1-0.1,0.2-0.1l0,0c0.1,0,0.1-0.1,0.2-0.1l0,0c0.1-0.1,0.1-0.1,0.2-0.2l0,0
		c0.1,0,0.1-0.1,0.2-0.1l0.1,0c0.1,0,0.1-0.1,0.2-0.1l0.1,0c0.1,0,0.1-0.1,0.2-0.1l0.1,0c0.1,0,0.1-0.1,0.2-0.1l0.1,0
		c0.1,0,0.1-0.1,0.2-0.1h0c0.1,0,0.2-0.1,0.2-0.1l0,0c0.1,0,0.1-0.1,0.2-0.1l0.1,0c0.1,0,0.1-0.1,0.2-0.1l0.1,0
		c0.1,0,0.1-0.1,0.2-0.1l0.1,0c0.1,0,0.1,0,0.2-0.1l0.1,0c0.1,0,0.1-0.1,0.2-0.1h0c0.2-0.1,0.3-0.1,0.5-0.2l0.1,0
		c0.1,0,0.1,0,0.2-0.1l0.1,0c0.1,0,0.1,0,0.2-0.1l0.1,0C64.1,20.3,64.1,20.3,64.3,20.3C64.2,20.3,64.3,20.3,64.3,20.3L64.3,20.3z
		 M55.2,33.6c6,0.3,11,4.9,11.7,10.9l0,0.2h-0.2c-0.5,0-0.9-0.1-1.4-0.1h-0.1c-0.1,0-0.2,0-0.2,0h0c-0.3,0-0.5-0.1-0.8-0.2h0
		c-0.1,0-0.2,0-0.2-0.1h0c-0.1,0-0.1,0-0.2-0.1h0c-0.1,0-0.1,0-0.2-0.1h0c-0.3-0.1-0.5-0.2-0.8-0.3l0,0c-0.1,0-0.2-0.1-0.2-0.1h0
		c-0.1,0-0.1-0.1-0.2-0.1l0,0c-0.1,0-0.1-0.1-0.2-0.1l0,0c-0.2-0.1-0.5-0.2-0.7-0.4l0,0c-0.1,0-0.1-0.1-0.2-0.1l0,0
		C61,43,61,43,60.9,42.9l0,0c-0.1,0-0.1-0.1-0.2-0.1l0,0c-0.2-0.1-0.4-0.3-0.6-0.5l0,0c-0.1,0-0.1-0.1-0.2-0.1l0,0
		c-0.1,0-0.1-0.1-0.2-0.1l0,0c-0.1,0-0.1-0.1-0.2-0.1l0,0c-0.1-0.1-0.1-0.1-0.2-0.2l0,0c-0.1-0.1-0.3-0.2-0.4-0.4l0,0
		c-0.1-0.1-0.1-0.1-0.2-0.2l0,0c0,0-0.1-0.1-0.1-0.2l0,0c0-0.1-0.1-0.1-0.1-0.2l0,0c-0.1-0.1-0.1-0.1-0.2-0.2l0,0
		c-0.1-0.1-0.2-0.3-0.3-0.4l0,0c0-0.1-0.1-0.1-0.1-0.2l0,0c0-0.1-0.1-0.1-0.1-0.2l-0.1-0.1c0-0.1-0.1-0.1-0.1-0.2l0,0
		c0-0.1-0.1-0.1-0.1-0.2l0,0c-0.1-0.1-0.2-0.3-0.3-0.4l0-0.1c0-0.1-0.1-0.1-0.1-0.2l0,0c0-0.1-0.1-0.1-0.1-0.2l0-0.1
		c0-0.1-0.1-0.1-0.1-0.2l0-0.1c0-0.1-0.1-0.1-0.1-0.2v0c-0.1-0.2-0.2-0.3-0.2-0.5v0c0-0.1-0.1-0.1-0.1-0.2l0-0.1
		c0-0.1-0.1-0.1-0.1-0.2l0-0.1c0-0.1,0-0.1-0.1-0.2l0-0.1c0-0.1-0.1-0.2-0.1-0.2v0c-0.1-0.2-0.1-0.3-0.2-0.5v0c0-0.1,0-0.2-0.1-0.2
		v0c0-0.1,0-0.1-0.1-0.2V35c-0.1-0.4-0.2-0.9-0.2-1.4l0-0.1L55.2,33.6L55.2,33.6z"/>
	<path style="fill-rule:evenodd;clip-rule:evenodd;fill:#348C34;" d="M61,7.1c0.6,0,1.1,0.5,1.1,1.1c0,0.6-0.5,1.1-1.1,1.1
		c-0.6,0-1.1-0.5-1.1-1.1C59.9,7.6,60.4,7.1,61,7.1L61,7.1z"/>
	<path style="fill-rule:evenodd;clip-rule:evenodd;fill:#69A135;" d="M74.4,7.5c0.5,0.3,0.7,0.9,0.4,1.4s-0.9,0.7-1.4,0.4
		c-0.5-0.3-0.7-0.9-0.4-1.4C73.2,7.4,73.9,7.2,74.4,7.5L74.4,7.5z"/>
	<path style="fill-rule:evenodd;clip-rule:evenodd;fill:#A2C03E;" d="M85.8,14.6c0.3,0.5,0.1,1.2-0.4,1.4c-0.5,0.3-1.2,0.1-1.4-0.4
		c-0.3-0.5-0.1-1.2,0.4-1.4S85.5,14.1,85.8,14.6L85.8,14.6z"/>
	<path style="fill-rule:evenodd;clip-rule:evenodd;fill:#C6E35D;" d="M91.9,25.9c0,0.6-0.5,1.1-1,1.1c-0.6,0-1.1-0.5-1.1-1
		c0-0.6,0.5-1.1,1-1.1C91.5,24.9,91.9,25.3,91.9,25.9L91.9,25.9z"/>
	<path style="fill-rule:evenodd;clip-rule:evenodd;fill:#348C34;" d="M91.8,38.9c-0.3,0.5-0.9,0.7-1.4,0.4c-0.5-0.3-0.7-0.9-0.4-1.4
		c0.3-0.5,0.9-0.7,1.4-0.4C91.9,37.8,92.1,38.4,91.8,38.9L91.8,38.9z"/>
	<path style="fill-rule:evenodd;clip-rule:evenodd;fill:#69A135;" d="M85,50.4c-0.5,0.3-1.1,0.1-1.5-0.4c-0.3-0.5-0.1-1.1,0.4-1.4
		s1.1-0.1,1.5,0.4C85.7,49.5,85.5,50.1,85,50.4L85,50.4z"/>
	<path style="fill-rule:evenodd;clip-rule:evenodd;fill:#A2C03E;" d="M73.4,57c-0.6,0-1.1-0.5-1.1-1c0-0.6,0.5-1.1,1-1.1
		s1.1,0.5,1.1,1C74.4,56.5,74,57,73.4,57L73.4,57z"/>
	<path style="fill-rule:evenodd;clip-rule:evenodd;fill:#C6E35D;" d="M59.9,56.9c-0.5-0.3-0.7-0.9-0.4-1.4c0.3-0.5,0.9-0.7,1.4-0.4
		c0.5,0.3,0.7,0.9,0.4,1.4C61.1,57,60.4,57.2,59.9,56.9L59.9,56.9z"/>
	<path style="fill-rule:evenodd;clip-rule:evenodd;fill:#348C34;" d="M48.4,49.9c-0.3-0.5-0.1-1.2,0.4-1.4c0.5-0.3,1.1-0.1,1.4,0.4
		c0.3,0.5,0.1,1.1-0.4,1.4C49.3,50.6,48.7,50.4,48.4,49.9L48.4,49.9z"/>
	<path style="fill-rule:evenodd;clip-rule:evenodd;fill:#69A135;" d="M42,38.1c0-0.6,0.5-1.1,1.1-1.1c0.6,0,1.1,0.5,1.1,1.1
		c0,0.6-0.5,1.1-1.1,1.1C42.4,39.2,42,38.7,42,38.1L42,38.1z"/>
	<path style="fill-rule:evenodd;clip-rule:evenodd;fill:#A2C03E;" d="M42.2,25c0.3-0.5,0.9-0.7,1.4-0.4c0.5,0.3,0.7,0.9,0.4,1.4
		c-0.3,0.5-0.9,0.7-1.4,0.4C42.1,26.1,42,25.5,42.2,25L42.2,25z"/>
	<path style="fill-rule:evenodd;clip-rule:evenodd;fill:#C6E35D;" d="M48.8,13.8c0.5-0.3,1.1-0.1,1.5,0.4c0.3,0.5,0.1,1.1-0.4,1.5
		c-0.5,0.3-1.1,0.1-1.5-0.4C48.2,14.8,48.4,14.1,48.8,13.8L48.8,13.8z"/>
	<path style="fill:#2D5638;" d="M36.4,30.8l0.1,1.6c0,0.7-0.1,1.2-0.4,1.6c-0.3,0.4-0.7,0.6-1.2,0.6c-0.7,0-1.2-0.3-1.5-1
		c-0.2,0.7-0.7,1.1-1.4,1.1c-0.5,0-1-0.2-1.3-0.5c-0.3-0.4-0.5-0.9-0.5-1.5l-0.1-1.6L36.4,30.8L36.4,30.8z M35.7,31.8l-1.9,0.1v0.5
		c0,0.9,0.4,1.3,1.1,1.3c0.6,0,0.9-0.4,0.9-1.2L35.7,31.8L35.7,31.8z M33,31.9L31,32l0,0.6c0,0.8,0.4,1.2,1,1.2
		c0.3,0,0.6-0.1,0.8-0.4c0.2-0.2,0.3-0.6,0.2-1V31.9L33,31.9z M37.1,38.6l0.3,1.2c0.2,0.6,0.2,1.1,0.1,1.4c-0.1,0.3-0.2,0.6-0.4,0.8
		c-0.2,0.2-0.5,0.4-0.9,0.5c-0.4,0.1-0.8,0.1-1.1-0.1c-0.4-0.2-0.6-0.5-0.8-0.9l-2,2.5l-0.6-0.8l2.4-2.8l-2.7,0.8L31,40.3L37.1,38.6
		L37.1,38.6z M36.6,39.7l-1.9,0.5l0.1,0.3c0.1,0.4,0.3,0.7,0.5,0.8c0.2,0.2,0.5,0.2,0.8,0.1c0.6-0.2,0.8-0.7,0.6-1.5L36.6,39.7
		L36.6,39.7z M41.1,47.8l-3.7,6.2l-0.7-0.6l1.5-2.4l-1.3-2l-2.8,0.3l-0.2-0.8L41.1,47.8L41.1,47.8z M39.6,48.6l-1.8,0.2l0.9,1.4
		L39.6,48.6L39.6,48.6z M45,53.1l-1.1,5.6l5.3-1.9l-3.6,5.3l-0.8-0.6l2.3-3.1l-4.2,1.5l0.9-4.4l-2.8,2.7l-0.6-0.6L45,53.1L45,53.1z
		 M55.2,60l0.3,7.2L54.6,67l-0.1-2.8l-2.1-1L50.2,65l-0.6-0.5L55.2,60L55.2,60z M54.5,61.5l-1.4,1.1l1.5,0.7L54.5,61.5L54.5,61.5z
		 M65,62.6l1.9,4.3l0.8-2.1l-1.1-2.3l1,0l0.6,1.4l0.5-1.4l0.9,0l-0.9,2.3l1,2.1l1.6-4.5l0.9,0l-2.5,6.6l-1.5-3.2L66.9,69l-2.8-6.4
		L65,62.6L65,62.6z M83.9,58.6l-0.2,0.8c-0.7-0.2-1.3-0.1-1.9,0.2c-0.6,0.3-1,0.8-1.2,1.4c-0.2,0.6-0.1,1.2,0.2,1.8
		c0.3,0.6,0.7,1,1.4,1.2c0.6,0.2,1.2,0.2,1.8-0.1c0.5-0.3,0.9-0.7,1.2-1.2l-0.6-1.3L83.3,62l-0.4-0.8l2-1l1.2,2.5
		c-0.4,0.9-1,1.6-1.8,2c-0.8,0.4-1.7,0.5-2.5,0.2c-0.8-0.3-1.5-0.9-1.9-1.7c-0.4-0.8-0.5-1.6-0.2-2.4c0.3-0.9,0.8-1.6,1.7-2
		c0.4-0.2,0.9-0.3,1.3-0.4C83.2,58.4,83.6,58.4,83.9,58.6L83.9,58.6z M88.4,53.5c0.6-0.6,1.3-1,2.1-1c1-0.1,1.9,0.2,2.6,0.9
		c0.6,0.6,1,1.3,1,2.2c0.1,0.9-0.2,1.8-0.9,2.4c-0.6,0.6-1.3,0.9-2,1c-1,0.1-1.9-0.2-2.6-0.9c-0.7-0.7-1.1-1.5-1-2.5
		C87.5,54.8,87.8,54.1,88.4,53.5L88.4,53.5z M89,54.1c-0.5,0.5-0.7,1-0.7,1.7c0,0.6,0.3,1.2,0.8,1.7c0.5,0.5,1.1,0.7,1.7,0.7
		c0.6,0,1.2-0.2,1.7-0.7c0.5-0.5,0.7-1,0.7-1.7c0-0.6-0.3-1.2-0.8-1.7s-1-0.7-1.7-0.7C90,53.4,89.5,53.6,89,54.1L89,54.1z
		 M92.9,48.1l0.6-1c0.3-0.5,0.6-0.9,0.9-1.1c0.3-0.2,0.5-0.2,0.9-0.2c0.3,0,0.6,0.1,0.9,0.3c0.4,0.2,0.6,0.5,0.7,0.9
		c0.1,0.4,0.1,0.8,0,1.2l3.2-0.3l-0.1,1L96.3,49l2.5,1.4l-0.4,0.9L92.9,48.1L92.9,48.1z M94.1,47.7l1.7,1l0.2-0.3
		c0.2-0.4,0.3-0.7,0.2-0.9S96,47,95.7,46.8c-0.6-0.3-1-0.1-1.5,0.6L94.1,47.7L94.1,47.7z M97,37.8l1,0.1c-0.2,0.3-0.3,0.6-0.4,0.9
		c-0.2,0.6-0.1,1.2,0.2,1.8c0.3,0.5,0.8,0.9,1.4,1.1c0.7,0.2,1.3,0.1,1.8-0.2c0.6-0.3,0.9-0.9,1.1-1.6c0.1-0.2,0.1-0.5,0.1-0.8
		l0.9,0.4c0,0.3-0.1,0.4-0.1,0.5c-0.3,1-0.8,1.8-1.5,2.2s-1.6,0.6-2.5,0.3c-0.9-0.2-1.5-0.7-2-1.4s-0.5-1.6-0.3-2.5
		C96.7,38.4,96.8,38.1,97,37.8L97,37.8z M97.4,33.7l0.1-3l0.9-0.2l-0.1,2.4l1.7,0.1l0.1-1.9l0.9,0l-0.1,1.9l1.9,0.1l0.1-2.6l0.9,0.4
		l-0.1,3.2L97.4,33.7L97.4,33.7z"/>
	<path style="fill-rule:evenodd;clip-rule:evenodd;fill:#FEFEFE;" d="M69.4,47c0-0.3,0-0.7,0-1c0-6-3.6-11.2-8.7-13.5
		c5.1-2.3,8.7-7.5,8.7-13.5c0-0.5,0-0.9-0.1-1.3c-0.6-0.1-1.3-0.1-2-0.1l0,0l0,0l0,0l0,0l0,0l0,0l0,0l0,0l0,0l0,0
		c-0.1,0-0.2,0-0.3,0c-0.1,0-0.1,0-0.2,0h-0.1l0,0c-0.4,0-0.8,0.1-1.2,0.1l0,0c-0.1,0-0.2,0-0.2,0l0,0c-0.4,0-0.7,0.1-1.1,0.2h0
		c-0.1,0-0.2,0-0.3,0.1h0c-0.1,0-0.2,0.1-0.3,0.1h0c-0.3,0.1-0.7,0.2-1,0.3h0c-0.1,0-0.2,0.1-0.3,0.1l-0.1,0c-0.1,0-0.2,0.1-0.3,0.1
		l-0.1,0c-0.1,0-0.2,0.1-0.3,0.1l0,0c-0.2,0.1-0.4,0.2-0.6,0.3c0,0,0,0-0.1,0c-0.1,0-0.2,0.1-0.2,0.1l-0.1,0c-0.1,0-0.1,0.1-0.2,0.1
		l-0.1,0c-0.1,0-0.2,0.1-0.2,0.1l-0.1,0c-0.2,0.1-0.4,0.2-0.6,0.3c0,0-0.1,0-0.1,0.1c-0.1,0-0.1,0.1-0.2,0.1c0,0-0.1,0-0.1,0.1
		c-0.1,0-0.1,0.1-0.2,0.1c0,0-0.1,0-0.1,0.1c-0.1,0-0.1,0.1-0.2,0.1c0,0-0.1,0-0.1,0.1c-0.1,0.1-0.1,0.1-0.2,0.2c0,0,0,0-0.1,0
		c-0.1,0.1-0.2,0.1-0.2,0.2c0,0-0.1,0.1-0.1,0.1c0,0-0.1,0.1-0.1,0.1c0,0-0.1,0.1-0.1,0.1c0,0-0.1,0.1-0.1,0.1c0,0-0.1,0.1-0.1,0.1
		c0,0-0.1,0.1-0.1,0.1c0,0-0.1,0.1-0.1,0.1c0,0-0.1,0.1-0.1,0.1c0,0-0.1,0.1-0.1,0.1c-0.1,0.1-0.1,0.1-0.2,0.2l0,0
		c0,0-0.1,0.1-0.1,0.1c0,0-0.1,0.1-0.1,0.1c0,0-0.1,0.1-0.1,0.1c0,0-0.1,0.1-0.1,0.1s-0.1,0.1-0.1,0.1s-0.1,0.1-0.1,0.1
		c0,0.1-0.1,0.1-0.1,0.2c0,0,0,0.1-0.1,0.1c-0.2,0.2-0.3,0.4-0.5,0.6l0,0.1c0,0.1-0.1,0.1-0.1,0.2c0,0,0,0-0.1,0.1
		c0,0.1-0.1,0.1-0.1,0.2l0,0.1c0,0.1-0.1,0.1-0.1,0.2l0,0c-0.2,0.3-0.4,0.6-0.6,0.9v0.1c0,0.1-0.1,0.1-0.1,0.2l0,0.1
		c0,0.1-0.1,0.2-0.1,0.2v0c-0.2,0.3-0.3,0.7-0.5,1.1l0,0c0,0.1-0.1,0.2-0.1,0.3v0c0,0.1-0.1,0.2-0.1,0.3v0c-0.2,0.5-0.3,0.9-0.4,1.4
		v0c0,0.1,0,0.2-0.1,0.3v0c-0.2,1-0.3,2-0.3,3.1c0,2.3,0.5,4.5,1.5,6.4l0,0c0.2,0.4,0.4,0.9,0.7,1.3v0c0,0.1,0.1,0.2,0.1,0.2l0,0
		c0.2,0.3,0.4,0.6,0.6,0.9v0c0,0.1,0.1,0.1,0.1,0.2l0,0.1c0,0.1,0.1,0.1,0.1,0.2l0,0.1c0.1,0.1,0.1,0.1,0.2,0.2l0,0
		c0.2,0.2,0.3,0.4,0.5,0.6c0,0,0,0,0.1,0.1s0.1,0.1,0.1,0.1s0.1,0.1,0.1,0.1S57,43,57,43s0.1,0.1,0.1,0.1c0,0,0.1,0.1,0.1,0.1
		s0.1,0.1,0.1,0.1c0.1,0.1,0.2,0.1,0.2,0.2c0,0,0.1,0.1,0.1,0.1s0.1,0.1,0.1,0.1c0,0,0.1,0.1,0.1,0.1c0,0,0.1,0.1,0.1,0.1
		c0,0,0.1,0.1,0.1,0.1c0,0,0.1,0.1,0.1,0.1c0,0,0.1,0.1,0.1,0.1c0,0,0.1,0.1,0.1,0.1c0.1,0.1,0.1,0.1,0.2,0.2c0,0,0.1,0,0.1,0.1
		c0.1,0,0.1,0.1,0.2,0.1c0,0,0.1,0,0.1,0.1c0.1,0,0.1,0.1,0.2,0.1c0,0,0.1,0,0.1,0.1c0.1,0,0.1,0.1,0.2,0.1c0,0,0.1,0,0.1,0.1
		c0.1,0,0.1,0.1,0.2,0.1c0,0,0.1,0,0.1,0c0.1,0.1,0.2,0.1,0.3,0.2l0,0c0.1,0,0.2,0.1,0.3,0.1c0,0,0.1,0,0.1,0c0.1,0,0.1,0.1,0.2,0.1
		l0.1,0c0.1,0,0.1,0.1,0.2,0.1l0.1,0c0.1,0,0.2,0.1,0.3,0.1h0c0.1,0,0.2,0.1,0.3,0.1h0c0.1,0,0.2,0.1,0.3,0.1l0.1,0
		c0.1,0,0.2,0.1,0.2,0.1l0.1,0c0.1,0,0.2,0.1,0.3,0.1l0.1,0c0.2,0.1,0.4,0.1,0.7,0.2h0c0.1,0,0.2,0.1,0.3,0.1H64
		c0.1,0,0.2,0,0.3,0.1h0.1c0.1,0,0.2,0,0.3,0.1h0c0.2,0,0.5,0.1,0.7,0.1h0c0.1,0,0.1,0,0.2,0l0,0c0.4,0,0.8,0.1,1.2,0.1l0,0h0.1l0,0
		l0,0h0.1c0.1,0,0.2,0,0.3,0l0,0l0,0l0,0l0,0l0,0l0,0l0,0l0,0l0,0l0,0C68.1,47.1,68.8,47.1,69.4,47L69.4,47z M70.7,17.8
		c5.7,1.3,10.2,5.9,11.3,11.6h-2.6c-1-4.3-4.4-7.8-8.6-8.9c0.1-0.5,0.1-1,0.1-1.6C70.7,18.6,70.7,18.2,70.7,17.8L70.7,17.8z
		 M82.1,30.8c0,0.5,0.1,1,0.1,1.5c0,7.1-4.9,12.9-11.5,14.5c0-0.3,0-0.5,0-0.8c0-0.6,0-1.3-0.1-1.9c4.8-1.3,8.4-5.5,9-10.6h-13v-2.7
		h13h1.8L82.1,30.8L82.1,30.8z M64.3,20.5C64.3,20.5,64.3,20.5,64.3,20.5c-0.1,0-0.2,0.1-0.3,0.1l-0.1,0c-0.1,0-0.1,0-0.2,0.1
		l-0.1,0c-0.1,0-0.1,0-0.2,0.1l-0.1,0c-0.2,0.1-0.3,0.1-0.5,0.2h0c-0.1,0-0.1,0.1-0.2,0.1l-0.1,0c-0.1,0-0.1,0-0.2,0.1l-0.1,0
		c-0.1,0-0.1,0-0.2,0.1l-0.1,0c-0.1,0-0.1,0.1-0.2,0.1l-0.1,0c-0.1,0-0.1,0.1-0.2,0.1l0,0c-0.1,0-0.2,0.1-0.2,0.1h0
		c-0.1,0-0.1,0.1-0.2,0.1l-0.1,0c-0.1,0-0.1,0.1-0.2,0.1l-0.1,0c-0.1,0-0.1,0.1-0.2,0.1l0,0.1c-0.1,0-0.1,0.1-0.2,0.1l-0.1,0
		c-0.1,0-0.1,0.1-0.2,0.1l0,0c-0.1,0.1-0.1,0.1-0.2,0.2l0,0c-0.1,0-0.1,0.1-0.2,0.1l0,0c-0.1,0-0.1,0.1-0.2,0.1l-0.1,0.1
		c0,0-0.1,0.1-0.1,0.1L59.5,23c0,0-0.1,0.1-0.1,0.1l0,0c-0.1,0-0.1,0.1-0.2,0.1l0,0c-0.1,0.1-0.3,0.2-0.4,0.4l0,0
		c0,0-0.1,0.1-0.1,0.1l-0.1,0.1c0,0-0.1,0.1-0.1,0.1l0,0c0,0-0.1,0.1-0.1,0.1l-0.1,0.1c0,0.1-0.1,0.1-0.1,0.2l0,0
		c-0.1,0.1-0.2,0.3-0.3,0.4l0,0c0,0.1-0.1,0.1-0.1,0.2l0,0.1c0,0-0.1,0.1-0.1,0.1l0,0.1c0,0.1-0.1,0.1-0.1,0.2l0,0.1
		c0,0.1-0.1,0.1-0.1,0.2l0,0.1c-0.1,0.1-0.2,0.3-0.3,0.4v0c0,0.1-0.1,0.1-0.1,0.2l0,0.1c0,0.1-0.1,0.1-0.1,0.2l0,0.1
		c0,0.1-0.1,0.1-0.1,0.2L56.4,27c0,0.1-0.1,0.1-0.1,0.2l0,0.1c0,0.1-0.1,0.2-0.1,0.2l0,0c0,0.1-0.1,0.2-0.1,0.3l0,0
		c0,0.1-0.1,0.2-0.1,0.2c0,0,0,0,0,0.1c0,0.1,0,0.1-0.1,0.2l0,0.1c0,0.1,0,0.1-0.1,0.2l0,0.1c0,0.1,0,0.1-0.1,0.2l0,0
		c0,0.1,0,0.2-0.1,0.2v0c0,0.2-0.1,0.3-0.1,0.5v0.1c0,0.1,0,0.1,0,0.2v0.1c-0.1,0.4-0.2,0.9-0.2,1.4c6.1-0.3,11-5,11.6-11.1
		c-0.5,0-0.9,0.1-1.4,0.1h-0.1c-0.1,0-0.1,0-0.2,0h0c-0.2,0-0.4,0.1-0.5,0.1h0C64.5,20.4,64.4,20.4,64.3,20.5L64.3,20.5z M55.2,33.7
		c6,0.3,10.8,4.9,11.5,10.8c-0.5,0-0.9-0.1-1.4-0.1h-0.1c-0.1,0-0.1,0-0.2,0h0c-0.3,0-0.5-0.1-0.8-0.2h0c-0.1,0-0.2,0-0.2-0.1h0
		c-0.1,0-0.1,0-0.2-0.1h0c-0.1,0-0.1,0-0.2-0.1h0c-0.3-0.1-0.5-0.2-0.7-0.3l0,0c-0.1,0-0.2-0.1-0.2-0.1h0c-0.1,0-0.1-0.1-0.2-0.1
		l0,0c-0.1,0-0.1-0.1-0.2-0.1l0,0c-0.2-0.1-0.5-0.2-0.7-0.4l0,0c-0.1,0-0.1-0.1-0.2-0.1l0,0c-0.1,0-0.1-0.1-0.2-0.1l0,0
		c-0.1,0-0.1-0.1-0.2-0.1l-0.1,0c-0.2-0.1-0.4-0.3-0.6-0.4l0,0c-0.1,0-0.1-0.1-0.2-0.1l0,0c-0.1,0-0.1-0.1-0.2-0.1l0,0
		c-0.1,0-0.1-0.1-0.2-0.1l0,0c-0.1-0.1-0.1-0.1-0.2-0.2l0,0c-0.1-0.1-0.3-0.2-0.4-0.4l0,0c-0.1-0.1-0.1-0.1-0.2-0.2l0,0
		c0,0-0.1-0.1-0.1-0.1l0,0c0-0.1-0.1-0.1-0.1-0.2l0,0c-0.1-0.1-0.1-0.1-0.2-0.2l0,0c-0.1-0.1-0.2-0.3-0.3-0.4l0,0
		c0-0.1-0.1-0.1-0.1-0.2l0,0c0-0.1-0.1-0.1-0.1-0.2l0,0c0-0.1-0.1-0.1-0.1-0.2l0-0.1c0-0.1-0.1-0.1-0.1-0.2l0,0
		c-0.1-0.1-0.2-0.3-0.3-0.4l0,0c0-0.1-0.1-0.1-0.1-0.2l0,0c0-0.1-0.1-0.1-0.1-0.2l0-0.1c0-0.1-0.1-0.1-0.1-0.2l0-0.1
		c0-0.1-0.1-0.1-0.1-0.2v0c-0.1-0.2-0.1-0.3-0.2-0.5v0c0-0.1-0.1-0.1-0.1-0.2v-0.1c0-0.1-0.1-0.1-0.1-0.2l0-0.1c0-0.1,0-0.1-0.1-0.2
		l0-0.1c0-0.1-0.1-0.1-0.1-0.2v0c-0.1-0.2-0.1-0.3-0.2-0.5v0c0-0.1,0-0.1-0.1-0.2v0c0-0.1,0-0.1-0.1-0.2V35
		C55.4,34.6,55.3,34.2,55.2,33.7L55.2,33.7z"/>
</g>
</svg>
