<?xml version="1.0" encoding="UTF-8"?>
<svg xmlns="http://www.w3.org/2000/svg" xmlns:xlink="http://www.w3.org/1999/xlink" viewBox="0 0 120 120">
  <defs>
    <style>
      .cls-1 {
        isolation: isolate;
      }

      .cls-2 {
        fill: none;
      }

      .cls-2, .cls-3, .cls-4, .cls-5, .cls-6 {
        stroke-width: 0px;
      }

      .cls-3 {
        fill: url(#radial-gradient);
        mix-blend-mode: multiply;
        opacity: .3;
      }

      .cls-4 {
        fill: #fff;
      }

      .cls-7 {
        clip-path: url(#clippath);
      }

      .cls-5 {
        fill: #c8102e;
      }

      .cls-6 {
        fill: #012169;
      }
    </style>
    <clipPath id="clippath">
      <circle class="cls-2" cx="60" cy="60" r="49.95"/>
    </clipPath>
    <radialGradient id="radial-gradient" cx="60" cy="60" fx="60" fy="60" r="49.95" gradientUnits="userSpaceOnUse">
      <stop offset="0" stop-color="#fff"/>
      <stop offset=".36" stop-color="#fdfdfd"/>
      <stop offset=".48" stop-color="#f6f6f6"/>
      <stop offset=".58" stop-color="#eaeaea"/>
      <stop offset=".65" stop-color="#d9d9d9"/>
      <stop offset=".71" stop-color="#c3c3c3"/>
      <stop offset=".77" stop-color="#a8a8a8"/>
      <stop offset=".82" stop-color="#878787"/>
      <stop offset=".87" stop-color="#626262"/>
      <stop offset=".91" stop-color="#373737"/>
      <stop offset=".95" stop-color="#090909"/>
      <stop offset=".96" stop-color="#000"/>
    </radialGradient>
  </defs>
  <g class="cls-1">
    <g id="Layer_1" data-name="Layer 1">
      <g class="cls-7">
        <g>
          <polygon class="cls-6" points="43.22 79.61 43.22 109.95 -17.27 109.95 43.22 79.61"/>
          <polygon class="cls-5" points="41.17 76.78 -25.08 109.95 -39.91 109.95 26.23 76.78 41.17 76.78"/>
          <polygon class="cls-6" points="3.84 76.78 -39.91 98.61 -39.91 76.78 3.84 76.78"/>
          <polygon class="cls-6" points="159.91 21.07 159.91 43.22 115.76 43.22 159.91 21.07"/>
          <polygon class="cls-5" points="159.91 10.05 93.71 43.22 78.78 43.22 145.03 10.05 159.91 10.05"/>
          <polygon class="cls-6" points="137.61 10.05 76.78 40.39 76.78 10.05 137.61 10.05"/>
          <polygon class="cls-6" points="43.22 10.05 43.22 40.39 -17.61 10.05 43.22 10.05"/>
          <polygon class="cls-5" points="26.34 43.22 11.41 43.22 -39.91 17.51 -39.91 10.05 26.34 43.22"/>
          <polygon class="cls-6" points="4.24 43.22 -39.91 43.22 -39.91 21.07 4.24 43.22"/>
          <polygon class="cls-5" points="159.91 49.98 159.91 70.02 70.02 70.02 70.02 109.95 49.98 109.95 49.98 70.02 -39.91 70.02 -39.91 49.98 49.98 49.98 49.98 10.05 70.02 10.05 70.02 49.98 159.91 49.98"/>
          <polygon class="cls-6" points="159.91 76.78 159.91 98.61 116.16 76.78 159.91 76.78"/>
          <polygon class="cls-6" points="137.27 109.95 76.78 109.95 76.78 79.61 137.27 109.95"/>
          <polygon class="cls-5" points="159.91 102.53 159.91 109.95 93.64 76.78 108.56 76.78 159.91 102.53"/>
          <polygon class="cls-4" points="49.98 70.02 49.98 109.95 43.22 109.95 43.22 79.61 -17.27 109.95 -25.08 109.95 41.17 76.78 26.23 76.78 -39.91 109.95 -39.91 98.61 3.84 76.78 -39.91 76.78 -39.91 70.02 49.98 70.02"/>
          <polygon class="cls-4" points="159.91 21.07 115.76 43.22 159.91 43.22 159.91 49.98 70.02 49.98 70.02 10.05 76.78 10.05 76.78 40.39 137.61 10.05 145.03 10.05 78.78 43.22 93.71 43.22 159.91 10.05 159.91 21.07"/>
          <polygon class="cls-4" points="49.98 10.05 49.98 49.98 -39.91 49.98 -39.91 43.22 4.24 43.22 -39.91 21.07 -39.91 17.51 11.41 43.22 26.34 43.22 -39.91 10.05 -17.61 10.05 43.22 40.39 43.22 10.05 49.98 10.05"/>
          <polygon class="cls-4" points="159.91 76.78 116.16 76.78 159.91 98.61 159.91 102.53 108.56 76.78 93.64 76.78 159.91 109.95 137.27 109.95 76.78 79.61 76.78 109.95 70.02 109.95 70.02 70.02 159.91 70.02 159.91 76.78"/>
        </g>
        <circle class="cls-3" cx="60" cy="60" r="49.95"/>
      </g>
    </g>
  </g>
</svg>