<svg id="Capa_1" enable-background="new 0 0 512 512" height="512" viewBox="0 0 512 512" width="512" xmlns="http://www.w3.org/2000/svg"><g><path d="m464.101 198.749h34.893c7.172 0 13.007-5.848 13.007-13.035v-19.43c0-7.172-5.835-13.006-13.007-13.006h-34.893c-7.172 0-13.006 5.834-13.006 13.006v3.656h-24.001v-121.633c0-25.61-20.835-46.445-46.444-46.445h-248.472c-25.625 0-46.472 20.835-46.472 46.445v55.896h-23.973v-3.685c0-7.172-5.834-13.006-13.006-13.006h-34.893c-7.172 0-13.007 5.834-13.007 13.006v19.458c0 7.172 5.835 13.006 13.007 13.006h34.893c7.172 0 13.006-5.834 13.006-13.006v-.774h23.973v201.438h-24.8v-3.656c0-7.172-5.834-13.006-13.006-13.006h-34.894c-7.172.001-13.006 5.835-13.006 13.007v19.43c0 7.188 5.834 13.035 13.006 13.035h34.893c7.172 0 13.006-5.848 13.006-13.035v-.774h24.8v128.052c0 25.61 20.847 46.445 46.472 46.445h248.472c25.609 0 46.444-20.835 46.444-46.445v-55.896h24.001v.774c0 7.188 5.834 13.035 13.006 13.035h34.893c7.172 0 13.007-5.847 13.007-13.035v-19.43c0-7.188-5.835-13.035-13.007-13.035h-34.893c-7.172 0-13.006 5.847-13.006 13.035v3.656h-24.001v-207.858h24.001v.774c.001 7.188 5.835 13.036 13.007 13.036zm-417.368-80.765h-30.906v-15.471h30.906zm-.828 216.466h-30.905v-15.471h30.905zm420.19 56.656h30.905v15.5h-30.905zm-148.009-366.052v12.097c0 4.517-3.675 8.192-8.192 8.192h-35.463c-4.143 0-7.5 3.358-7.5 7.5s3.357 7.5 7.5 7.5h35.463c9.25 0 17.249-5.445 20.969-13.296h49.786c.683 0 1.259.577 1.259 1.259v55.894h-66.076c-1.137-3.483-3.064-6.763-5.828-9.526-4.549-4.563-10.597-7.076-17.03-7.076-6.438 0-12.49 2.517-17.018 7.064-2.732 2.721-4.724 5.981-5.89 9.538h-27.358c-1.136-3.48-3.061-6.758-5.821-9.52-4.549-4.567-10.6-7.083-17.036-7.083-6.439 0-12.491 2.517-17.018 7.064-2.733 2.721-4.725 5.981-5.89 9.538h-66.025v-55.892c0-.683.577-1.259 1.259-1.259h49.761c3.725 7.851 11.734 13.296 20.995 13.296h36.633c4.142 0 7.5-3.358 7.5-7.5s-3.358-7.5-7.5-7.5h-36.633c-4.533 0-8.22-3.675-8.22-8.192v-12.098c0-4.517 3.688-8.192 8.22-8.192h106.96c4.518 0 8.193 3.675 8.193 8.192zm12.88 439.898c-3.673-7.973-11.734-13.524-21.073-13.524h-35.463c-4.143 0-7.5 3.358-7.5 7.5s3.357 7.5 7.5 7.5h35.463c4.518 0 8.192 3.675 8.192 8.192v12.069c0 4.533-3.675 8.221-8.192 8.221-.624 0-1.226.085-1.806.228h-103.348c-.579-.143-1.182-.228-1.806-.228-4.533 0-8.22-3.688-8.22-8.221v-12.069c0-.271.015-.539.041-.803.038-.207.072-.415.093-.627.682-3.837 4.044-6.762 8.087-6.762h36.633c4.142 0 7.5-3.358 7.5-7.5s-3.358-7.5-7.5-7.5h-36.633c-9.35 0-17.421 5.551-21.098 13.524h-49.658c-.682 0-1.259-.577-1.259-1.259v-55.893h66.024c1.163 3.554 3.149 6.808 5.868 9.515 4.55 4.57 10.602 7.087 17.041 7.087s12.491-2.517 17.03-7.076c2.763-2.763 4.69-6.043 5.827-9.526h27.357c1.163 3.554 3.15 6.808 5.868 9.515 4.55 4.57 10.602 7.087 17.04 7.087 6.439 0 12.491-2.517 17.03-7.076 2.763-2.763 4.691-6.043 5.828-9.526h66.076v55.893c0 .683-.576 1.259-1.259 1.259zm-134.024-345.752c1.164 3.558 3.154 6.817 5.881 9.533 4.695 4.695 10.862 7.042 17.029 7.042s12.334-2.348 17.03-7.042c2.765-2.765 4.693-6.047 5.829-9.533h27.353c1.164 3.558 3.154 6.817 5.881 9.533 4.695 4.695 10.862 7.042 17.03 7.042 6.167 0 12.334-2.347 17.029-7.042 2.765-2.765 4.693-6.047 5.83-9.533h66.074v57.16h-22.053c-1.134-3.489-3.057-6.776-5.817-9.547-.007-.008-.015-.016-.022-.023-9.414-9.371-24.7-9.365-34.087.023-2.759 2.771-4.683 6.058-5.817 9.547h-115.396c-1.134-3.489-3.057-6.776-5.817-9.547-.004-.004-.008-.008-.012-.012-9.398-9.398-24.689-9.398-34.099.012-2.759 2.771-4.683 6.058-5.817 9.547h-22.053v-57.16zm31.988-7.494c-.001 2.325-.886 4.65-2.656 6.42-3.542 3.541-9.305 3.541-12.857-.012-3.531-3.515-3.498-9.339.023-12.846 1.714-1.722 3.991-2.67 6.411-2.67s4.697.949 6.411 2.67c.004.004.008.008.011.012 1.769 1.769 2.654 4.093 2.656 6.417v.003c.001.002.001.004.001.006zm57.633-6.437c1.715-1.722 3.992-2.67 6.411-2.67 2.42 0 4.697.949 6.412 2.67.004.004.007.008.011.012 3.542 3.542 3.542 9.305 0 12.846s-9.305 3.541-12.856-.012c-1.723-1.714-2.671-3.991-2.671-6.412 0-2.42.948-4.697 2.693-6.434zm29.272 287.531c-1.137-3.486-3.065-6.768-5.83-9.533-9.392-9.39-24.67-9.39-34.048-.012-2.734 2.723-4.727 5.985-5.892 9.544h-27.354c-1.136-3.486-3.065-6.768-5.83-9.533-9.39-9.39-24.668-9.39-34.047-.012-2.735 2.723-4.727 5.985-5.892 9.544h-66.023v-57.16h22.056c1.135 3.492 3.062 6.783 5.825 9.559 4.698 4.698 10.867 7.047 17.039 7.047 6.175 0 12.354-2.353 17.06-7.059 2.759-2.771 4.683-6.058 5.816-9.547h115.399c1.135 3.492 3.062 6.783 5.825 9.559 4.688 4.688 10.853 7.034 17.024 7.034 6.174 0 12.356-2.348 17.075-7.045 2.759-2.771 4.683-6.058 5.816-9.547h22.053v57.16h-66.072zm-16.448 13.931c-1.715 1.722-3.992 2.67-6.412 2.67-2.419 0-4.696-.949-6.434-2.694-1.723-1.714-2.671-3.991-2.671-6.411s.948-4.697 2.683-6.423c1.771-1.771 4.097-2.656 6.422-2.656 2.326 0 4.652.886 6.423 2.656 3.541 3.542 3.541 9.305-.011 12.858zm-88.638-6.457c.006-2.412.953-4.68 2.68-6.4 1.771-1.771 4.097-2.656 6.423-2.656s4.652.886 6.422 2.656c3.542 3.542 3.542 9.305-.011 12.858-1.714 1.722-3.991 2.67-6.411 2.67s-4.697-.949-6.435-2.694c-1.715-1.708-2.662-3.975-2.669-6.385.001-.008.001-.04.001-.049zm-57.773-208.914c1.136 3.486 3.062 6.766 5.824 9.528 4.699 4.699 10.871 7.048 17.043 7.048s12.345-2.349 17.043-7.048c2.762-2.762 4.688-6.042 5.824-9.528h115.405c1.136 3.486 3.062 6.766 5.824 9.528 4.69 4.69 10.856 7.035 17.029 7.035 6.17 0 12.348-2.345 17.059-7.035 2.762-2.762 4.688-6.042 5.824-9.528h22.057v57.154h-81.764c-1.523-9.008-5.775-17.304-12.37-23.886-8.384-8.382-19.526-12.998-31.375-12.998-11.851 0-22.995 4.618-31.38 13.003-6.74 6.74-10.841 15.13-12.328 23.881h-81.773v-57.154zm16.431-13.953c1.775-1.774 4.106-2.662 6.437-2.662 2.329 0 4.657.885 6.431 2.656 3.543 3.564 3.546 9.34.006 12.88-3.55 3.549-9.324 3.549-12.874 0-3.542-3.541-3.537-9.322 0-12.874zm161.14 0c1.769-1.769 4.095-2.653 6.426-2.653s4.665.885 6.447 2.653c3.537 3.564 3.538 9.336.012 12.863-3.562 3.548-9.344 3.553-12.885.012-3.542-3.542-3.537-9.323 0-12.875zm29.304 143.233c-1.136-3.486-3.062-6.767-5.824-9.529-.004-.004-.008-.008-.012-.012-9.411-9.371-24.698-9.367-34.076.012-2.762 2.762-4.688 6.042-5.823 9.529h-115.405c-1.136-3.486-3.062-6.767-5.824-9.529-9.397-9.398-24.689-9.397-34.087 0-2.762 2.762-4.688 6.042-5.823 9.529h-22.058v-57.126h81.778c1.491 8.741 5.59 17.119 12.323 23.853 8.385 8.385 19.529 13.003 31.38 13.003s22.995-4.618 31.375-12.998c6.588-6.574 10.838-14.861 12.365-23.857h81.769v57.126h-22.058zm-16.419 13.941c-3.563 3.549-9.345 3.553-12.873.023-3.549-3.564-3.554-9.345-.012-12.887 1.769-1.769 4.095-2.653 6.426-2.653 2.332 0 4.668.886 6.451 2.656 3.538 3.543 3.532 9.322.008 12.861zm-158.499-6.388c-.011 2.318-.895 4.634-2.652 6.4-3.55 3.549-9.324 3.549-12.862.012-3.548-3.564-3.553-9.345-.012-12.887 1.775-1.774 4.106-2.662 6.437-2.662s4.662.888 6.437 2.662c1.758 1.758 2.639 4.066 2.652 6.38 0 .014-.002.028-.002.042-.001.018.002.035.002.053zm99.877-64.679c-1.306 4.967-3.905 9.52-7.638 13.246-5.552 5.552-12.929 8.609-20.773 8.609s-15.222-3.058-20.773-8.609c-3.799-3.799-6.329-8.391-7.607-13.246zm-56.798-15c1.275-4.866 3.808-9.468 7.614-13.274 5.552-5.552 12.929-8.609 20.773-8.609 7.845 0 15.222 3.058 20.773 8.609.002.002.004.003.006.005 3.736 3.73 6.336 8.292 7.64 13.27h-56.806zm-127.306 215.179v-415.386c0-17.339 14.118-31.445 31.472-31.445h49.036c-.967 2.549-1.501 5.309-1.501 8.192v6.994h-47.536c-8.965 0-16.259 7.294-16.259 16.259v415.386c0 8.965 7.293 16.259 16.259 16.259h47.536v6.737c0 2.98.571 5.828 1.598 8.449h-49.134c-17.353 0-31.471-14.106-31.471-31.445zm311.388 0c0 17.339-14.105 31.445-31.444 31.445h-49.16c1.026-2.62 1.596-5.468 1.596-8.449v-6.737h47.563c8.965 0 16.259-7.294 16.259-16.259v-63.354c0-.013.002-.026.002-.039s-.002-.026-.002-.039v-72.082c0-.013.002-.026.002-.039s-.002-.026-.002-.039v-144.202c0-.013.002-.026.002-.039s-.002-.026-.002-.039v-72.082c0-.013.002-.026.002-.039s-.002-.026-.002-.039v-63.354c0-8.965-7.294-16.259-16.259-16.259h-47.563v-6.994c0-2.883-.533-5.643-1.499-8.192h49.062c17.339 0 31.444 14.106 31.444 31.445v415.386zm54.001-295.416h30.905v15.471h-30.905z"/></g></svg>