<svg id="Layer_1" height="512" viewBox="0 0 64 64" width="512" xmlns="http://www.w3.org/2000/svg" data-name="Layer 1"><path d="m51 8h-38a5.006 5.006 0 0 0 -5 5v38a5.006 5.006 0 0 0 5 5h38a5.006 5.006 0 0 0 5-5v-38a5.006 5.006 0 0 0 -5-5zm3 43a3 3 0 0 1 -3 3h-38a3 3 0 0 1 -3-3v-38a3 3 0 0 1 3-3h38a3 3 0 0 1 3 3z"/><path d="m32 14h-11a1 1 0 0 0 -1 1v35a1 1 0 0 0 1 1h7a1 1 0 0 0 1-1v-10h3a13 13 0 0 0 0-26zm0 24h-4a1 1 0 0 0 -1 1v10h-5v-33h10a11 11 0 0 1 0 22z"/><path d="m32.5 21.5h-4.5a1 1 0 0 0 -1 1v9a1 1 0 0 0 1 1h4.5a5.5 5.5 0 0 0 0-11zm0 9h-3.5v-7h3.5a3.5 3.5 0 0 1 0 7z"/></svg>