<svg id="Capa_1" enable-background="new 0 0 512 512" height="512" viewBox="0 0 512 512" width="512" xmlns="http://www.w3.org/2000/svg"><g><g><path d="m454.822 105.25c-.08-.052-.16-.103-.241-.152l-46.087-28.178-7.783-21.092c-4.882-16.396-14.48-30.74-27.055-40.421h-.001c-.002-.001-.003-.003-.005-.004-12.917-9.933-29.004-15.403-45.295-15.403h-144.72c-16.23 0-32.257 5.426-45.128 15.279-.003.002-.006.005-.009.007-12.19 9.328-21.837 23.686-27.184 40.448l-7.818 21.186-46.078 28.178c-.081.049-.16.1-.24.151-27.386 17.833-41.082 50.088-34.892 82.173l30.204 156.621c-11.299 2.186-19.86 12.148-19.86 24.076v24.155c0 13.317 10.671 24.182 23.91 24.512l-6.902 49.96c-4.511 23.106 13.756 45.254 37.28 45.254h338.156c23.524 0 41.792-22.147 37.281-45.255l-6.902-49.959c13.239-.33 23.909-11.194 23.909-24.512v-24.155c0-11.928-8.561-21.891-19.861-24.076l30.213-156.619c6.19-32.086-7.506-64.341-34.892-82.174zm-197.002 153.46-80.257-184.691 157.851-.009-66.838 159.097zm70.535-238.71c9.372 0 18.65 2.477 26.781 7.072l-11.319 26.938h-174.947l-11.765-27.08c8.064-4.505 17.29-6.93 26.53-6.93zm-198.045 41.995c2.55-8.064 6.304-15.343 10.942-21.354l105.848 243.585-18.443 43.899-106.212-244.786s7.817-21.194 7.865-21.344zm-62.332 60.089 39.102-23.912 106.485 245.418h-140.794l-30.847-159.954c-4.633-24.019 5.59-48.163 26.054-61.552zm5.008 363.304c-3.772-4.622-4.361-9.913-3.577-15.61l7.319-52.976h113.362l-32.22 75.198h-70.952c-5.424 0-10.502-2.41-13.932-6.612zm106.643 6.612 32.22-75.199h33.628l-33.152 75.199zm259.378-6.612c-3.43 4.202-8.508 6.612-13.932 6.612h-190.893l33.152-75.199h167.931l7.319 52.976c.784 5.694.197 10.987-3.577 15.611zm20.355-93.114c0 2.497-2.031 4.527-4.527 4.527h-397.678c-2.497 0-4.527-2.031-4.527-4.527v-24.155c0-2.496 2.031-4.527 4.527-4.527h397.678c2.496 0 4.527 2.031 4.527 4.527zm10.714-208.638-30.856 159.954h-140.795l32.112-74.008c2.198-5.066-.127-10.956-5.193-13.154s-10.956.126-13.154 5.193l-35.566 81.969h-32.77l127.181-302.728c5.136 6.618 7.919 13.831 10.798 21.579l7.711 20.897-42.409 97.739c-2.171 5.004.196 10.986 5.193 13.154 5.069 2.198 10.956-.126 13.154-5.193l39.427-90.867 39.112 23.913c20.465 13.39 30.689 37.533 26.055 61.552z"/><path d="m348.01 221.63c-1.639-3.935-5.704-6.453-9.964-6.135-4.178.312-7.767 3.265-8.892 7.297-2.506 8.983 8.113 16.194 15.58 10.696 3.665-2.697 4.992-7.672 3.276-11.858z"/></g></g></svg>