<svg id="Layer_1" enable-background="new 0 0 128 128" height="512" viewBox="0 0 128 128" width="512" xmlns="http://www.w3.org/2000/svg"><path d="m104 28.3h-9.2c-4.4 0-8.8-.5-13.1-1.4-37.4-7.5-38.7-8.7-45.7-8.6-6.5 0-12.5 2.9-16.3 7.4-.9 1.1-1.4 2.4-1.4 3.8v21.1c0 1.4.5 2.8 1.4 3.8 3.2 3.7 6.6 5.3 10.5 6.6 3.8 1.1 6 4.4 6.1 8 0 .1 1.6 22.7 2 28.2.1.9.8 1.6 1.7 1.6h2.3v9.3c0 1 .8 1.7 1.7 1.8h8c1 0 1.7-.8 1.8-1.7v-9.5c2.4-.6 4.1-2.7 4.2-5.2l.9-14.7c.4.1.7.1 1.1.1 1.2.1 2.4-.4 3.4-1.2 1.2-1 1.5-4.1 1.5-6.5.1-2.4-.1-5.1-1.5-6.5-1-1-2.2-1.2-3.6-1.2.8-6 6.7-7 6.8-7s15-3.1 15.1-3.1c4.3-.9 8.7-1.4 13.1-1.4h9.2c3.2 0 5.7-2.6 5.8-5.8v-12.2c-.1-3.2-2.6-5.7-5.8-5.7zm-53.7 78h-4.5v-7.5h4.5zm1.9-11h-10.6l-1.9-26.4c0-2.6-.9-5.1-2.5-7.1 2.3-.1 4.7-.3 7-.8l13.9-3c-1.2 1.9-1.9 4.1-1.9 6.3l-1.8 28.8c0 1.2-1 2.1-2.2 2.2zm8.7-28.4c.8.6.6 7.8 0 8.1-.5.3-1.2.3-1.8.1l.5-8.4c.4 0 .9 0 1.3.2zm45.4-20.9c0 1.2-1 2.2-2.3 2.3h-9.2c-4.6 0-9.3.5-13.8 1.4-1.7.4 6.1-1.3-14.9 3.1-1.1.2 5.8-1.2-22.5 4.7-5.6 1.2-9.5.8-12.6.1-3.4-1-6.4-2.9-8.7-5.5-.4-.4-.6-.9-.6-1.5v-1.8h4.3c1 0 1.8-.8 1.8-1.8s-.8-1.7-1.8-1.7h-4.3v-3.5h4.3c1 0 1.8-.8 1.8-1.8s-.8-1.7-1.8-1.7h-4.3v-3.5h4.3c1 0 1.8-.8 1.8-1.8s-.8-1.7-1.8-1.7h-4.3v-1.8c0-.6.2-1.1.6-1.5 3.2-3.7 8.2-6.2 13.7-6.2 6.5 0 8.2 1.1 45 8.6 4.5 1 9.2 1.4 13.8 1.4h9.2c1.2 0 2.2 1 2.3 2.3z"/><path d="m40 30.3c-3.2 0-5.7 2.6-5.8 5.8v8c0 3.2 2.6 5.8 5.8 5.8s5.8-2.6 5.8-5.8v-8c-.1-3.3-2.6-5.8-5.8-5.8zm2.3 13.7c0 1.2-1 2.3-2.3 2.3s-2.3-1-2.3-2.3v-8c0-1.2 1-2.3 2.3-2.3s2.3 1 2.3 2.3z"/></svg>