<svg id="Capa_1" enable-background="new 0 0 512.002 512.002" height="512" viewBox="0 0 512.002 512.002" width="512" xmlns="http://www.w3.org/2000/svg"><g id="XMLID_867_"><g id="XMLID_244_"><path id="XMLID_722_" d="m409.314 97.377c26.847 0 48.688-21.841 48.688-48.688s-21.842-48.688-48.688-48.688-48.688 21.841-48.688 48.688 21.841 48.688 48.688 48.688zm0-77.376c15.819 0 28.688 12.869 28.688 28.688s-12.869 28.688-28.688 28.688-28.688-12.869-28.688-28.688 12.869-28.688 28.688-28.688z"/><path id="XMLID_857_" d="m1.342 403.001c1.786 3.094 5.087 5 8.66 5h492c3.573 0 6.874-1.906 8.66-5 1.787-3.094 1.787-6.906 0-10l-56.412-97.708c-2.762-4.784-8.878-6.422-13.66-3.66-4.783 2.761-6.422 8.877-3.66 13.66l47.751 82.708h-72.863l-104.066-180.248 36.432-63.101 47.751 82.707c1.852 3.208 5.213 5.002 8.669 5.001 1.696 0 3.416-.432 4.991-1.341 4.783-2.761 6.422-8.877 3.66-13.66l-56.411-97.707c-1.786-3.094-5.087-5-8.66-5-3.572 0-6.874 1.906-8.66 5l-39.319 68.101-79.522-137.735c-1.786-3.094-5.087-5-8.66-5s-6.874 1.906-8.66 5l-130.361 225.792-21.829-37.809c-1.786-3.094-5.087-5-8.66-5s-6.874 1.906-8.66 5l-28.511 49.382c-2.762 4.783-1.123 10.899 3.66 13.66 4.783 2.76 10.898 1.123 13.66-3.66l19.851-34.382 18.942 32.809-56.113 97.191c-1.787 3.094-1.787 6.906 0 10zm206.681-327.983 63.073 109.246-30.595 30.595-45.22-45.221c-3.257-3.256-8.316-3.868-12.254-1.481l-44.265 26.824zm-90.028 155.933 68.69-41.625 46.746 46.746c1.875 1.875 4.419 2.929 7.071 2.929s5.196-1.054 7.071-2.929l33.876-33.877 107.275 185.805h-361.402z"/><path id="XMLID_859_" d="m126.335 450.001c0-5.523-4.477-10-10-10h-106.333c-5.523 0-10 4.477-10 10s4.477 10 10 10h106.333c5.523 0 10-4.477 10-10z"/><path id="XMLID_860_" d="m202.835 440.001c-5.523 0-10 4.477-10 10s4.477 10 10 10h106.333c5.523 0 10-4.477 10-10s-4.477-10-10-10z"/><path id="XMLID_886_" d="m502.002 440.001h-106.333c-5.523 0-10 4.477-10 10s4.477 10 10 10h106.333c5.523 0 10-4.477 10-10s-4.477-10-10-10z"/><path id="XMLID_1027_" d="m409.335 492.001h-109.333c-5.523 0-10 4.477-10 10s4.477 10 10 10h109.333c5.523 0 10-4.477 10-10s-4.477-10-10-10z"/><path id="XMLID_1028_" d="m212.002 492.001h-109.333c-5.523 0-10 4.477-10 10s4.477 10 10 10h109.333c5.523 0 10-4.477 10-10s-4.477-10-10-10z"/><path id="XMLID_1070_" d="m416.022 254.251c-1.86 1.87-2.93 4.44-2.93 7.08 0 2.63 1.07 5.21 2.93 7.07s4.44 2.93 7.07 2.93 5.21-1.07 7.07-2.93 2.93-4.44 2.93-7.07c0-2.64-1.07-5.21-2.93-7.08-1.86-1.86-4.44-2.92-7.07-2.92s-5.21 1.06-7.07 2.92z"/></g></g></svg>