<svg id="Capa_1" enable-background="new 0 0 506.175 506.175" height="512" viewBox="0 0 506.175 506.175" width="512" xmlns="http://www.w3.org/2000/svg"><path d="m76.852 216.126c0-4.142-3.358-7.5-7.5-7.5h-42.007c-4.524 0-6.765-3.036-7.519-4.341-.753-1.305-2.262-4.764 0-8.682l98.959-171.403c2.262-3.918 6.012-4.341 7.52-4.341 1.507 0 5.257.423 7.519 4.341l98.959 171.403c2.262 3.918.753 7.377 0 8.682-.754 1.306-2.995 4.341-7.519 4.341h-126.3c-4.142 0-7.5 3.358-7.5 7.5s3.358 7.5 7.5 7.5h126.3c8.562 0 16.229-4.427 20.509-11.841s4.281-16.268 0-23.682l-98.959-171.404c-4.281-7.415-11.948-11.841-20.509-11.841-8.561 0-16.229 4.427-20.51 11.841l-98.959 171.404c-4.281 7.415-4.281 16.268 0 23.682s11.948 11.841 20.509 11.841h42.007c4.142 0 7.5-3.358 7.5-7.5z"/><path d="m48.712 171.539c0 17.203 13.995 31.198 31.198 31.198 9.475 0 17.971-4.251 23.698-10.941 5.726 6.689 14.222 10.941 23.698 10.941 9.475 0 17.971-4.251 23.697-10.941 5.726 6.689 14.222 10.941 23.698 10.941 17.203 0 31.198-13.995 31.198-31.198 0-15.575-11.472-28.519-26.41-30.83 1.434-3.579 2.231-7.478 2.231-11.563 0-15.237-10.982-27.949-25.444-30.657 1.127-3.22 1.747-6.676 1.747-10.276 0-17.203-13.995-31.198-31.198-31.198s-31.199 13.995-31.199 31.198c0 3.6.62 7.056 1.747 10.276-14.463 2.708-25.445 15.42-25.445 30.657 0 4.146.82 8.102 2.294 11.724-14.495 2.682-25.51 15.409-25.51 30.669zm78.593 16.197c-8.932 0-16.198-7.266-16.198-16.198s7.266-16.198 16.198-16.198c8.931 0 16.197 7.266 16.197 16.198s-7.266 16.198-16.197 16.198zm63.593-16.197c0 8.932-7.266 16.198-16.198 16.198s-16.198-7.266-16.198-16.198 7.266-16.198 16.198-16.198 16.198 7.266 16.198 16.198zm-24.179-42.393c0 8.932-7.266 16.198-16.197 16.198-8.932 0-16.198-7.266-16.198-16.198 0-5.526 2.785-10.409 7.022-13.333.71-.375 1.402-.777 2.078-1.204 2.147-1.052 4.55-1.66 7.098-1.66 8.93-.001 16.197 7.265 16.197 16.197zm-39.895-57.131c8.932 0 16.198 7.266 16.198 16.198 0 5.526-2.785 10.409-7.022 13.333-.71.375-1.402.777-2.078 1.204-2.147 1.052-4.55 1.66-7.098 1.66s-4.951-.608-7.098-1.66c-.676-.427-1.369-.829-2.078-1.204-4.236-2.924-7.022-7.808-7.022-13.333 0-8.932 7.266-16.198 16.198-16.198zm-23.698 40.933c2.548 0 4.951.608 7.098 1.66.676.427 1.369.829 2.078 1.204 4.236 2.924 7.022 7.808 7.022 13.333 0 8.932-7.266 16.198-16.198 16.198s-16.198-7.266-16.198-16.198 7.266-16.197 16.198-16.197zm-23.217 42.393c8.932 0 16.198 7.266 16.198 16.198s-7.266 16.198-16.198 16.198-16.198-7.266-16.198-16.198 7.267-16.198 16.198-16.198z"/><path d="m500.095 118.16c-4.734-7.808-14.654-10.376-22.584-5.847l-83.907 47.929c-3.597 2.054-4.847 6.635-2.792 10.232 2.054 3.598 6.636 4.847 10.232 2.792l83.907-47.928c.815-.465 1.833-.202 2.319.6s.249 1.827-.54 2.333l-183.828 118.17 4.249-19.543 68.428-39.087c3.597-2.054 4.847-6.635 2.792-10.232-2.054-3.597-6.634-4.847-10.232-2.792l-56.7 32.387 40.633-186.894c1.94-8.924-3.487-17.615-12.356-19.788-8.867-2.173-17.7 3.026-20.104 11.835l-61.485 225.3-62.384 35.635c-.001 0-.002.001-.003.001l-91.133 52.056-13.7 7.826c-.001 0-.001.001-.001.001l-24.826 14.181c-.403.232-.885.523-1.278.776-6.707 4.312-11.258 10.994-12.813 18.816-1.555 7.819.097 15.738 4.652 22.299 5.54 7.979 14.681 12.292 24.003 12.292 2.768 0 5.553-.381 8.264-1.159.633-.182 1.262-.39 1.886-.615.044-.016.089-.027.132-.043 1.334-.489 2.644-1.078 3.919-1.77.637-.346 1.266-.717 1.884-1.115l23.59-15.164c.001 0 .001-.001.002-.001l101.557-65.284c.002-.001.003-.002.005-.003l17.901-11.507-37.391 137.001c0 .001-.001.002-.001.003l-7.528 27.587c-.12.446-.255.992-.354 1.447-.424 1.948-.647 3.905-.675 5.849-.007.486-.002.971.016 1.455.192 5.323 1.857 10.502 4.903 15.061.554.829 1.144 1.623 1.768 2.381.084.102.174.198.259.299.678.802 1.396 1.56 2.149 2.277.721.687 1.475 1.333 2.259 1.938.417.322.843.632 1.277.931.972.668 1.98 1.284 3.03 1.829.858.445 1.741.848 2.645 1.208.904.359 1.831.675 2.777.944s1.911.494 2.894.671c1.66.299 3.316.444 4.958.444 7.555 0 14.764-3.063 20.157-8.189 3.595-3.417 6.384-7.751 7.93-12.706.258-.826.481-1.668.668-2.527l5.958-27.403c0-.001 0-.002.001-.003l25.649-117.973c0-.001 0-.001 0-.001l15.383-70.757c.769-.194 1.523-.5 2.227-.952l194.098-124.773c7.681-4.938 9.989-14.923 5.254-22.73zm-166.014-101.883c.209-.766.891-1.266 1.648-1.266.137 0 .277.017.417.051.91.223 1.467 1.115 1.268 2.031l-67.304 309.57-19.435-4.761zm-89.62 428.363-25.571-6.264 27.836-101.998 20.197 4.948zm-152.461-94.844 14.058 23.182-17.444 11.213c-5.74 3.689-13.207 2.939-17.851-1.434-.663-.625-1.269-1.323-1.804-2.094-2.212-3.186-3.015-7.028-2.261-10.818.754-3.793 2.96-7.033 6.214-9.125.109-.07.23-.144.347-.215.1-.061.2-.119.283-.167zm26.681 15.068-13.652-22.511 91.806-52.441 10.783 17.78zm101.559-65.286-10.375-17.109 42.676-24.377-6.858 25.13zm-9.014 185.341c-.269-.402-.515-.814-.739-1.234-.282-.53-.516-1.078-.727-1.632-.959-2.524-1.182-5.269-.592-7.981.023-.108.052-.226.08-.341.033-.135.067-.267.095-.374l5.596-20.505 26.333 6.451-4.406 20.264c-1.657 7.62-9.009 12.737-16.393 11.403-3.815-.689-7.1-2.838-9.247-6.051z"/></svg>