<?xml version="1.0" encoding="utf-8"?>
<!-- Generator: Adobe Illustrator 27.1.1, SVG Export Plug-In . SVG Version: 6.00 Build 0)  -->
<svg version="1.1" id="svg2829" xmlns:svg="http://www.w3.org/2000/svg"
	 xmlns="http://www.w3.org/2000/svg" xmlns:xlink="http://www.w3.org/1999/xlink" x="0px" y="0px" viewBox="0 0 682.7 682.7"
	 style="enable-background:new 0 0 682.7 682.7;" xml:space="preserve">
<g>
	<path style="fill:none;" d="M408.5,549c0-0.3,0-0.6,0-1c0-1.3,0.3-2.6,0.8-3.8l9-59.6h-92.8c-5.5,0-10-4.5-10-10s4.5-10,10-10h95.9
		L424,447c0.8-5.1-0.7-10.3-4.1-14.1c-3.3-3.9-8.3-6.1-13.5-6.1H274.2c-5.2,0-10,2.3-13.5,6.1c-3.3,3.9-4.8,9.1-4.1,14.3l2.7,17.6
		h19.2c5.5,0,10,4.5,10,10s-4.5,10-10,10h-16l14.2,93.5h127.4L408.5,549z"/>
	<path style="fill:none;" d="M564,112h-84.4v0.1c-2,0-3.6,1.6-3.6,3.6v31.6c0,2,1.6,3.6,3.6,3.6H564c2,0,3.6-1.6,3.6-3.6v-31.7
		C567.6,113.6,566,112,564,112z"/>
	<path style="fill:none;" d="M591.2,598.2H90.5c-0.2,0-0.4,0-0.6,0c-0.2,0-0.4,0-0.6,0c-16.4,0-29.8,13.4-29.8,29.9v28.4
		c0,3.5,2.8,6.1,6.1,6.1H615c3.5,0,6.1-2.8,6.1-6.1v-28.4C621.1,611.5,607.6,598.2,591.2,598.2z"/>
	<path style="fill:none;" d="M99.8,263.1v315.1h156.6l-15.1-99.9c-0.3-0.7-0.5-1.4-0.6-2.2l-4-26.1c-1.6-10.9,1.5-21.9,8.7-30.3
		c7.2-8.4,17.6-13.1,28.5-13.1h132.1c10.9,0,21.5,4.8,28.5,13.1c7.2,8.4,10.4,19.3,8.7,30.3l-2.2,14.5h21c8.4,0,16.3,3.9,21.5,10.5
		c5.2,6.7,6.9,15.2,4.8,23.5L478,537.8c-3.1,11.9-13.9,20.3-26.3,20.3h-24.5l-3.1,20.2h156.7V263.1H420.8v30.1
		c0,19.3-15.7,35.2-35.2,35.2h-3.6v18.9c0,11.7-9.6,21.3-21.3,21.3h-40.7c-11.7,0-21.3-9.6-21.3-21.3v-18.9h-3.6
		c-19.5,0-35.2-15.9-35.2-35.2v-30.1H99.8z"/>
	<path style="fill:none;" d="M400.8,293.2v-30.1H279.9v30.1c0,8.4,6.8,15.2,15.2,15.2h13.2c0.1,0,0.3,0,0.4,0s0.3,0,0.4,0h62.6
		c0.1,0,0.3,0,0.4,0s0.3,0,0.4,0h13.2C394,308.4,400.8,301.6,400.8,293.2z"/>
	<path style="fill:none;" d="M320.1,348.6h40.7c0.7,0,1.3-0.5,1.3-1.3v-18.9h-43.3v18.9C318.7,348,319.3,348.6,320.1,348.6z"/>
	<path style="fill:none;" d="M458.7,532.7l10.1-39.2c0.8-2.9-0.4-5.1-1.2-6.1c-0.8-1.1-2.5-2.8-5.6-2.8h-23.6l-8.1,53.5h21.4
		C455,538,457.9,535.9,458.7,532.7z"/>
	<path style="fill:none;" d="M279.8,131.5c0,33.5,27.1,60.5,60.5,60.5c33.5,0,60.5-27.2,60.5-60.5c0-33.3-27.1-60.5-60.5-60.5
		C307,71,279.8,98.1,279.8,131.5z M368.2,103.7c3.9,3.9,3.9,10.3,0,14.1l-41.6,41.6c-1.9,2-4.5,2.9-7.1,2.9c-2.5,0-5.1-0.9-7.1-2.9
		c-3.9-3.9-3.9-10.3,0-14.1l41.6-41.6C358,99.8,364.4,99.8,368.2,103.7z"/>
	<path style="fill:none;" d="M116.7,112v0.1c-2,0-3.6,1.6-3.6,3.6v31.6c0,2,1.6,3.6,3.6,3.6h84.4c2,0,3.6-1.6,3.6-3.6v-31.7
		c0-2-1.6-3.6-3.6-3.6H116.7z"/>
	<path d="M312.5,159.4c2,2,4.5,2.9,7.1,2.9c2.5,0,5.2-0.9,7.1-2.9l41.6-41.6c3.9-3.9,3.9-10.3,0-14.1c-3.9-3.9-10.3-3.9-14.1,0
		l-41.6,41.6C308.6,149.1,308.6,155.5,312.5,159.4z"/>
	<path d="M259.8,131.5c0,44.4,36.1,80.5,80.5,80.5c44.4,0,80.5-36.1,80.5-80.5c0-44.4-36.1-80.5-80.5-80.5
		C295.9,51,259.8,87.1,259.8,131.5z M400.9,131.5c0,33.3-27.1,60.5-60.5,60.5c-33.5,0-60.5-27.1-60.5-60.5
		c0-33.5,27.2-60.5,60.5-60.5C373.8,71,400.9,98.2,400.9,131.5z"/>
	<path d="M116.7,92c-13.1,0-23.6,10.5-23.6,23.6v31.7c0,13.1,10.5,23.6,23.6,23.6h84.4c13.1,0,23.6-10.5,23.6-23.6v-31.7
		c0-13.1-10.5-23.6-23.6-23.6H116.7z M204.7,115.6v31.7c0,2-1.6,3.6-3.6,3.6h-84.4c-2,0-3.6-1.6-3.6-3.6v-31.6c0-2,1.6-3.6,3.6-3.6
		V112h84.4C203.1,112,204.7,113.6,204.7,115.6z"/>
	<path d="M564,92h-84.4c-13.1,0-23.6,10.5-23.6,23.6v31.7c0,13.1,10.5,23.6,23.6,23.6H564c13.1,0,23.6-10.5,23.6-23.6v-31.7
		C587.6,102.6,577.1,92,564,92z M567.6,147.4c0,2-1.6,3.6-3.6,3.6h-84.4c-2,0-3.6-1.6-3.6-3.6v-31.6c0-2,1.6-3.6,3.6-3.6V112H564
		c2,0,3.6,1.6,3.6,3.6V147.4z"/>
	<path d="M600.9,579.1V263c22.5-1.4,40.3-20.2,40.3-43v-58.9c0-5.5-4.5-10-10-10s-10,4.5-10,10V220c0,12.7-10.3,23.1-23.1,23.1H592
		c-0.4,0-0.7-0.1-1.1-0.1s-0.7,0-1.1,0.1H411.3c-0.2,0-0.3,0-0.5,0s-0.3,0-0.5,0h-140c-0.2,0-0.3,0-0.5,0s-0.3,0-0.5,0H90.3
		c-0.2,0-0.3,0-0.5,0s-0.3,0-0.5,0h-6.8c-12.7,0-23.1-10.3-23.1-23.1V60c0-22,18-40,40-40h481.7c22,0,40,18,40,40v54
		c0,5.5,4.5,10,10,10s10-4.5,10-10V60c0-33.1-26.9-60-60-60H99.5c-33.1,0-60,26.9-60,60v160c0,22.8,17.9,41.5,40.3,43v316.2
		c-22.9,4.5-40.2,24.8-40.2,48.9v28.4c0,14.4,11.7,26.1,26.1,26.1h549.3c14.4,0,26.1-11.7,26.3-26.1v-28.4
		C641.4,603.8,623.9,583.5,600.9,579.1z M318.7,328.4h43.3v18.9c0,0.8-0.7,1.3-1.3,1.3h-40.7c-0.8,0-1.3-0.7-1.3-1.3V328.4z
		 M372.4,308.4c-0.1,0-0.3,0-0.4,0s-0.3,0-0.4,0h-62.6c-0.1,0-0.3,0-0.4,0s-0.3,0-0.4,0h-13.2c-8.4,0-15.2-6.8-15.2-15.2v-30.1
		h120.9v30.1c0,8.4-6.8,15.2-15.2,15.2H372.4z M295.1,328.4h3.6v18.9c0,11.7,9.6,21.3,21.3,21.3h40.7c11.7,0,21.3-9.6,21.3-21.3
		v-18.9h3.6c19.5,0,35.2-15.9,35.2-35.2v-30.1h160.1v315.1H424.2l3.1-20.2h24.5c12.4,0,23.2-8.4,26.3-20.3l10.3-39.2
		c2.1-8.3,0.4-16.8-4.8-23.5c-5.2-6.7-13.1-10.5-21.5-10.5h-21l2.2-14.5c1.7-10.9-1.5-21.9-8.7-30.3c-7.1-8.3-17.6-13.1-28.5-13.1
		H274c-10.9,0-21.3,4.7-28.5,13.1c-7.2,8.4-10.3,19.3-8.7,30.3l4,26.1c0.1,0.8,0.3,1.5,0.6,2.2l15.1,99.9H99.8V263.1h160.1v30.1
		C259.9,312.5,275.6,328.4,295.1,328.4z M276.6,578.2l-14.2-93.5h16c5.5,0,10-4.5,10-10s-4.5-10-10-10h-19.2l-2.7-17.6
		c-0.7-5.2,0.8-10.4,4.1-14.3c3.5-3.9,8.3-6.1,13.5-6.1h132.1c5.2,0,10.1,2.3,13.5,6.1c3.5,3.9,4.9,9.1,4.1,14.1l-2.7,17.6h-95.9
		c-5.5,0-10,4.5-10,10s4.5,10,10,10h92.8l-9,59.6c-0.5,1.2-0.8,2.5-0.8,3.8c0,0.3,0,0.6,0,1l-4.4,29.2H276.6z M438.4,484.6H462
		c3.1,0,4.8,1.7,5.6,2.8c0.8,1.1,2,3.2,1.2,6.1l-10.1,39.2c-0.8,3.2-3.7,5.3-6.9,5.3h-21.4L438.4,484.6z M621.1,656.5
		c0,3.3-2.7,6.1-6.1,6.1H65.6c-3.3,0-6.1-2.7-6.1-6.1v-28.4c0-16.5,13.4-29.8,29.8-29.9c0.2,0,0.4,0,0.6,0c0.2,0,0.4,0,0.6,0h500.8
		c16.4,0,29.9,13.3,29.9,29.9V656.5z"/>
</g>
</svg>
