<?xml version="1.0" encoding="utf-8"?>
<!-- Generator: Adobe Illustrator 27.1.1, SVG Export Plug-In . SVG Version: 6.00 Build 0)  -->
<svg version="1.1" id="svg1452" xmlns:svg="http://www.w3.org/2000/svg"
	 xmlns="http://www.w3.org/2000/svg" xmlns:xlink="http://www.w3.org/1999/xlink" x="0px" y="0px" viewBox="0 0 682.7 682.7"
	 style="enable-background:new 0 0 682.7 682.7;" xml:space="preserve">
<g id="g1458" transform="matrix(1.3333333,0,0,-1.3333333,0,682.66667)">
	<g id="g1460">
		<g>
			<defs>
				<rect id="SVGID_1_" x="-85.3" y="-85.3" width="682.7" height="682.7"/>
			</defs>
			<clipPath id="SVGID_00000114790994656895022860000000231001165652048257_">
				<use xlink:href="#SVGID_1_"  style="overflow:visible;"/>
			</clipPath>
			<g id="g1462" style="clip-path:url(#SVGID_00000114790994656895022860000000231001165652048257_);">
				<g id="g1468" transform="translate(7.5,389.7999)">
					<g id="path1470">
						<path d="M452.1-389.8H44.8c-28.9,0-52.3,23.5-52.3,52.3V0c0,4.1,3.4,7.5,7.5,7.5h497c4.1,0,7.5-3.4,7.5-7.5v-337.5
							C504.5-366.3,481-389.8,452.1-389.8z M7.5-7.5v-330c0-20.6,16.8-37.3,37.3-37.3h407.3c20.6,0,37.4,16.8,37.4,37.3v330H7.5z"/>
					</g>
				</g>
				<g id="g1472" transform="translate(7.5,389.7999)">
					<g id="path1474">
						<path d="M497-7.5H0c-4.1,0-7.5,3.4-7.5,7.5v69.8c0,28.9,23.5,52.4,52.3,52.4h407.3c28.9,0,52.4-23.5,52.4-52.4V0
							C504.5-4.1,501.1-7.5,497-7.5z M7.5,7.5h482v62.3c0,20.6-16.8,37.4-37.4,37.4H44.8c-20.6,0-37.3-16.8-37.3-37.4V7.5z"/>
					</g>
				</g>
				<g id="g1476" transform="translate(442.7952,471.513)">
					<g id="path1478">
						<path d="M0-56.2h-164.1c-10.6,0-19.2,8.6-19.2,19.2v25.3c0,10.6,8.6,19.2,19.2,19.2H0c10.6,0,19.2-8.6,19.2-19.2V-37
							C19.2-47.6,10.6-56.2,0-56.2z M-164.1-7.5c-2.3,0-4.2-1.9-4.2-4.2V-37c0-2.3,1.9-4.2,4.2-4.2H0c2.3,0,4.2,1.9,4.2,4.2v25.3
							c0,2.3-1.9,4.2-4.2,4.2H-164.1z"/>
					</g>
				</g>
				<g id="g1480" transform="translate(127.6633,447.1499)">
					<g id="path1482">
						<path d="M-22.4-29.9c-16.5,0-29.9,13.4-29.9,29.9s13.4,29.9,29.9,29.9S7.5,16.5,7.5,0S-5.9-29.9-22.4-29.9z M-22.4,14.9
							c-8.2,0-14.9-6.7-14.9-14.9s6.7-14.9,14.9-14.9S-7.5-8.2-7.5,0S-14.2,14.9-22.4,14.9z"/>
					</g>
				</g>
				<g id="g1484" transform="translate(204.5299,447.1499)">
					<g id="path1486">
						<path d="M-22.4-29.9c-16.5,0-29.9,13.4-29.9,29.9s13.4,29.9,29.9,29.9S7.5,16.5,7.5,0S-5.9-29.9-22.4-29.9z M-22.4,14.9
							c-8.2,0-14.9-6.7-14.9-14.9s6.7-14.9,14.9-14.9S-7.5-8.2-7.5,0S-14.2,14.9-22.4,14.9z"/>
					</g>
				</g>
				<g id="g1488" transform="translate(358.5718,222.1939)">
					<g id="path1490">
						<path d="M-35-137.2c-42.5,0-77.1,34.6-77.1,77.1S-77.5,17-35,17c13.6,0,27-3.6,38.8-10.5C7.4,4.4,8.6-0.2,6.5-3.8
							C4.4-7.4-0.2-8.6-3.8-6.5C-13.2-0.9-24,2-35,2c-34.2,0-62.1-27.8-62.1-62.1c0-34.2,27.8-62.1,62.1-62.1s62.1,27.8,62.1,62.1
							c0,13-4,25.4-11.5,36c-2.4,3.4-1.6,8.1,1.7,10.5c3.4,2.4,8.1,1.6,10.5-1.7C37.1-28.6,42.1-44,42.1-60.1
							C42.1-102.6,7.5-137.2-35-137.2z"/>
					</g>
				</g>
				<g id="g1492" transform="translate(57.5,389.7999)">
					<g id="path1494">
						<path d="M397-72.9c-1.2,0-2.3,0.3-3.4,0.8l-24.8,12.5c-6.6,3.3-14,5.1-21.4,5.1c-7.4,0-14.8-1.8-21.4-5.1
							c-8.7-4.4-18.4-6.7-28.2-6.7c-9.7,0-19.5,2.3-28.2,6.7c-6.6,3.3-14,5.1-21.4,5.1c-7.4,0-14.8-1.8-21.4-5.1
							c-8.7-4.4-18.4-6.7-28.2-6.7c-9.7,0-19.5,2.3-28.2,6.7c-6.6,3.3-14,5.1-21.4,5.1c-7.4,0-14.8-1.8-21.4-5.1
							c-8.7-4.4-18.4-6.7-28.2-6.7S79.8-64,71.1-59.6c-13.4,6.8-29.4,6.8-42.9,0L3.4-72.1c-2.3-1.2-5.1-1.1-7.3,0.3
							c-2.2,1.4-3.6,3.8-3.6,6.4V0c0,4.1,3.4,7.5,7.5,7.5h397c4.1,0,7.5-3.4,7.5-7.5v-65.4c0-2.6-1.4-5-3.6-6.4
							C399.7-72.5,398.4-72.9,397-72.9z M7.5-7.5v-45.7l13.9,7c17.7,8.9,38.7,8.9,56.4,0c6.6-3.3,14-5.1,21.4-5.1s14.8,1.8,21.4,5.1
							c8.7,4.4,18.4,6.7,28.2,6.7c9.7,0,19.5-2.3,28.2-6.7c6.6-3.3,14-5.1,21.4-5.1c7.4,0,14.8,1.8,21.4,5.1
							c8.7,4.4,18.4,6.7,28.2,6.7c9.8,0,19.5-2.3,28.2-6.7c6.6-3.3,14-5.1,21.4-5.1c7.4,0,14.8,1.8,21.4,5.1
							c8.7,4.4,18.4,6.7,28.2,6.7c9.7,0,19.5-2.3,28.2-6.7l13.9-7v45.7H7.5z"/>
					</g>
				</g>
				<g id="g1496" transform="translate(429.6899,336.9)">
					<g id="path1498">
						<path d="M24.8-286.9h-397c-4.1,0-7.5,3.4-7.5,7.5v266.9c0,2.8,1.6,5.4,4.1,6.7l24.8,12.5c17.7,8.9,38.7,8.9,56.4,0
							c6.6-3.3,14-5.1,21.4-5.1c7.4,0,14.8,1.8,21.4,5.1c8.7,4.4,18.4,6.7,28.2,6.7c9.7,0,19.5-2.3,28.2-6.7
							c6.6-3.3,14-5.1,21.4-5.1c7.4,0,14.8,1.8,21.4,5.1c8.7,4.4,18.4,6.7,28.2,6.7c9.8,0,19.5-2.3,28.2-6.7
							c6.6-3.3,14-5.1,21.4-5.1c7.4,0,14.8,1.8,21.4,5.1c8.7,4.4,18.4,6.7,28.2,6.7c9.7,0,19.5-2.3,28.2-6.7c0,0,0,0,0,0L28.2-5.8
							c2.5-1.3,4.1-3.9,4.1-6.7v-266.9C32.3-283.5,29-286.9,24.8-286.9z M-364.7-271.9h382v254.8L-3.4-6.7c-6.6,3.3-14,5.1-21.4,5.1
							c-7.4,0-14.8-1.8-21.4-5.1c-8.7-4.4-18.4-6.7-28.2-6.7c-9.7,0-19.5,2.3-28.2,6.7c-6.6,3.3-14,5.1-21.4,5.1
							c-7.4,0-14.8-1.8-21.4-5.1c-8.7-4.4-18.4-6.7-28.2-6.7c-9.7,0-19.5,2.3-28.2,6.7c-6.6,3.3-14,5.1-21.4,5.1
							c-7.4,0-14.8-1.8-21.4-5.1c-8.7-4.4-18.4-6.7-28.2-6.7c-9.7,0-19.5,2.3-28.2,6.7c-13.4,6.8-29.4,6.8-42.9,0l-20.7-10.4V-271.9
							z"/>
					</g>
				</g>
				<g id="g1500" transform="translate(323.5889,266.6666)">
					<g id="path1502">
						<path d="M0-216.7c-61.8,0-112.1,50.3-112.1,112.1c0,6.7,0.6,13.4,1.8,20c0.3,1.7,1.2,3.3,2.6,4.4C-94-68.8-85.8-52-85.1-34.3
							c0.1,1.8,0.7,3.4,1.9,4.7C-62-6-31.7,7.5,0,7.5c61.8,0,112.1-50.3,112.1-112.1C112.1-166.4,61.8-216.7,0-216.7z M-96-89.8
							c-0.7-4.9-1.1-9.8-1.1-14.8c0-53.5,43.5-97.1,97.1-97.1s97.1,43.5,97.1,97.1C97.1-51,53.5-7.5,0-7.5c-26.6,0-52-11-70.3-30.2
							C-71.8-57.7-81-76.4-96-89.8z"/>
					</g>
				</g>
				<g id="g1504" transform="translate(132.4341,179.4649)">
					<g id="path1506">
						<path d="M43.3-22.5c-17.6,0-34.1,5.7-47.9,16.6C-7.9-3.3-8.5,1.4-5.9,4.6c2.6,3.3,7.3,3.8,10.5,1.3
							C15.8-2.8,29.2-7.5,43.3-7.5c34.6,0,62.7,28.1,62.7,62.7v49.5c0,3.5-2.8,6.3-6.3,6.3H-13.1c-3.5,0-6.3-2.8-6.3-6.3V55.3
							c0-10.2,2.4-19.9,7.1-28.9c1.9-3.7,0.5-8.2-3.2-10.1c-3.7-1.9-8.2-0.5-10.1,3.2c-5.7,11-8.8,23.4-8.8,35.9v49.5
							c0,11.7,9.6,21.3,21.3,21.3H99.8c11.7,0,21.3-9.6,21.3-21.3V55.3C121.1,12.4,86.2-22.5,43.3-22.5z"/>
					</g>
				</g>
				<g id="g1508" transform="translate(191,98.0001)">
					<g id="path1510">
						<path d="M28-48h-86.5c-4.1,0-7.4,3.3-7.5,7.3C-66.6-10-44.3,4.1-32.4,7.2c0.6,0.2,1.3,0.3,1.9,0.3H0c0.7,0,1.3-0.1,1.9-0.3
							C13.8,4.1,36.1-10,35.5-40.7C35.4-44.7,32.1-48,28-48z M-50.5-33H20C17.2-15,2.6-8.8-1.2-7.5h-28.2C-33-8.8-47.7-14.9-50.5-33
							z"/>
					</g>
				</g>
				<g id="g1512" transform="translate(175.75,164.5001)">
					<g id="path1514">
						<path d="M15.2-74h-30.5c-4.1,0-7.5,3.4-7.5,7.5V1.7c0,2.3,1,4.4,2.8,5.8c1.8,1.4,4.1,2,6.3,1.5c9-2,18.3-2,27.3,0
							c2.2,0.5,4.5-0.1,6.3-1.5c1.8-1.4,2.8-3.6,2.8-5.8v-68.2C22.7-70.6,19.4-74,15.2-74z M-7.7-59H7.7v51.9
							C2.6-7.6-2.6-7.6-7.7-7.1V-59z"/>
					</g>
				</g>
			</g>
		</g>
	</g>
</g>
</svg>
