<svg id="Layer_1" height="512" viewBox="0 0 512 512" width="512" xmlns="http://www.w3.org/2000/svg" data-name="Layer 1"><path d="m464.355 368.1c-.3 0-.605.015-.908.022v-56.17c0-17.607-14.563-31.933-32.465-31.933h-149.376a32.1 32.1 0 0 0 -26.4 13.563 32.6 32.6 0 0 0 -26.529-13.563h-150.222c-17.9 0-32.464 14.326-32.464 31.933v56.189c-19.991.859-35.991 17.11-35.991 36.971v95.153a6 6 0 0 0 6 6h63.288a6 6 0 0 0 6-6v-13.039l341.424.1v12.936a6 6 0 0 0 6 6h63.288a6 6 0 0 0 6-6v-95.15c0-20.406-16.888-37.012-37.645-37.012zm-197.207-70.137a20.239 20.239 0 0 1 14.458-5.94h149.376c11.285 0 20.465 8.942 20.465 19.933v58.39a37.11 37.11 0 0 0 -24.735 34.766v5.361l-165.529-.046.02-97.645a20.681 20.681 0 0 1 5.945-14.819zm-188.693-5.94h150.223c11.284 0 20.464 8.942 20.464 19.935l.037 98.465-163.891-.046v-5.265a37.165 37.165 0 0 0 -27.3-35.575v-57.581c.003-10.991 9.183-19.933 20.467-19.933zm-5.167 202.242h-51.288v-89.153c0-13.79 11.5-25.008 25.645-25.008s25.643 11.218 25.643 25.008zm12-19.039v-52.849l341.424.1v52.856zm404.712 19.039h-51.288v-89.153c0-13.79 11.5-25.008 25.643-25.008s25.645 11.218 25.645 25.008z"/><path d="m117.575 381.345a8.9 8.9 0 1 0 -8.9-8.9 8.913 8.913 0 0 0 8.9 8.9zm0-12a3.1 3.1 0 1 1 -3.1 3.1 3.1 3.1 0 0 1 3.1-3.1z"/><path d="m189.6 381.345a8.9 8.9 0 1 0 -8.9-8.9 8.912 8.912 0 0 0 8.9 8.9zm0-12a3.1 3.1 0 1 1 -3.1 3.1 3.1 3.1 0 0 1 3.1-3.1z"/><path d="m117.575 338.9a8.9 8.9 0 1 0 -8.9-8.9 8.913 8.913 0 0 0 8.9 8.9zm0-12a3.1 3.1 0 1 1 -3.1 3.1 3.1 3.1 0 0 1 3.1-3.1z"/><path d="m189.6 338.9a8.9 8.9 0 1 0 -8.9-8.9 8.912 8.912 0 0 0 8.9 8.9zm0-12a3.1 3.1 0 1 1 -3.1 3.1 3.1 3.1 0 0 1 3.1-3.1z"/><path d="m320.3 381.345a8.9 8.9 0 1 0 -8.9-8.9 8.912 8.912 0 0 0 8.9 8.9zm0-12a3.1 3.1 0 1 1 -3.1 3.1 3.1 3.1 0 0 1 3.1-3.1z"/><path d="m392.325 381.345a8.9 8.9 0 1 0 -8.9-8.9 8.913 8.913 0 0 0 8.9 8.9zm0-12a3.1 3.1 0 1 1 -3.1 3.1 3.1 3.1 0 0 1 3.1-3.1z"/><path d="m320.3 338.9a8.9 8.9 0 1 0 -8.9-8.9 8.912 8.912 0 0 0 8.9 8.9zm0-12a3.1 3.1 0 1 1 -3.1 3.1 3.1 3.1 0 0 1 3.1-3.1z"/><path d="m392.325 338.9a8.9 8.9 0 1 0 -8.9-8.9 8.913 8.913 0 0 0 8.9 8.9zm0-12a3.1 3.1 0 1 1 -3.1 3.1 3.1 3.1 0 0 1 3.1-3.1z"/><path d="m91.545 248.991h328.91a6 6 0 0 0 6-6v-154.781a6 6 0 0 0 -6-6h-328.715v-70.475a6 6 0 0 0 -12 0v72.508a54.441 54.441 0 0 0 -48.369 54.03v9.674a6 6 0 0 0 6 6h27.694a22.986 22.986 0 0 0 20.48 17.178v71.866a6 6 0 0 0 6 6zm192.425-12-2.97-2.884 42.006-32.279 41.164 35.163zm-17.23 0h-113.114l58.631-52.881zm147.715 0h-31.809l-55.546-47.446a6 6 0 0 0 -7.554-.195l-47.246 36.31-55.709-54.071a6 6 0 0 0 -8.2-.15l-72.681 65.552h-38.165v-68.626a23.578 23.578 0 0 0 11.131-14.418h25.433a6 6 0 0 0 6-6v-9.674a54.32 54.32 0 0 0 -22.575-44.063h296.921zm-371.084-98.718a42.369 42.369 0 0 1 84.738 0v3.674h-84.738zm34.614 15.674h17.771a10.17 10.17 0 0 1 -17.771 0z"/><path d="m68.747 108.311a54.352 54.352 0 0 0 -14.154 14.71 6 6 0 1 0 10.051 6.557 42.4 42.4 0 0 1 11.043-11.478 6 6 0 0 0 -6.94-9.789z"/><path d="m272.766 190.773a26 26 0 1 0 -26-26 26.029 26.029 0 0 0 26 26zm0-40a14 14 0 1 1 -14 14 14.017 14.017 0 0 1 14-14z"/></svg>