<?xml version="1.0" encoding="iso-8859-1"?>
<!-- Generator: Adobe Illustrator 19.0.0, SVG Export Plug-In . SVG Version: 6.00 Build 0)  -->
<svg version="1.1" id="Capa_1" xmlns="http://www.w3.org/2000/svg" xmlns:xlink="http://www.w3.org/1999/xlink" x="0px" y="0px"
	 viewBox="0 0 512 512" style="enable-background:new 0 0 512 512;" xml:space="preserve">
<g>
	<g>
		<path d="M512,295.482V190.953c0-7.41-6.012-13.439-13.402-13.439h-96.52C377.28,101.819,306.324,47.029,222.884,47.029
			c-104.003,0-188.615,85.121-188.615,189.75c0,13.511,1.433,26.688,4.115,39.406H17.062c-7.791,0-14.128,6.358-14.128,14.172
			c0,7.233,0.582,14.359,1.68,21.338c-2.26,2.527-3.649,5.853-3.649,9.508c0,7.7,0.637,15.284,1.865,22.694
			C1.06,346.281,0,349.224,0,352.418c0,56.108,33.324,106.183,84.895,127.569c1.737,0.722,3.573,1.087,5.456,1.087h108.113
			c1.884,0,3.72-0.366,5.454-1.086c29.199-12.109,52.541-33.419,67.304-59.809c39.7-10.598,74.302-33.908,99.206-65.337v64.413
			c-10.437,3.003-18.773,12.131-21.823,23.924h-6.196c-6.893,0-12.5,5.607-12.5,12.5v14.168c0,6.893,5.607,12.5,12.5,12.5h150.392
			c6.892,0,12.5-5.607,12.5-12.5V455.68c0-6.893-5.608-12.5-12.5-12.5h-6.196c-3.05-11.793-11.385-20.921-21.823-23.924v-69.289
			C491.416,346.277,512,323.258,512,295.482z M270.878,291.185c-0.036,5.324-0.43,10.58-1.142,15.75H19.078
			c-0.711-5.17-1.106-10.426-1.142-15.75H270.878z M198.312,466.074H90.502c-14.97-6.23-28.195-15.19-39.24-26.154h186.291
			C226.508,450.883,213.282,459.844,198.312,466.074z M250.417,424.92H38.397c-14.785-20.399-23.251-45.339-23.396-71.818h173.998
			c4.142,0,7.5-3.357,7.5-7.5s-3.358-7.5-7.5-7.5H17.136c-0.733-5.306-1.137-10.7-1.169-16.166h256.881
			c-0.032,5.466-0.436,10.86-1.169,16.166h-42.68c-4.142,0-7.5,3.357-7.5,7.5s3.358,7.5,7.5,7.5h44.813
			C273.668,379.581,265.202,404.521,250.417,424.92z M279.762,401.875c5.881-15.474,9.053-32.177,9.053-49.457
			c0-3.193-1.061-6.136-2.83-8.52c1.228-7.411,1.865-14.995,1.865-22.695c0-3.654-1.389-6.981-3.649-9.508
			c1.098-6.979,1.68-14.105,1.68-21.338c0-0.166-0.019-0.327-0.025-0.492c12-14.373,19.239-32.893,19.239-53.086
			c0-21.284-8.024-41.503-22.593-56.931c-2.845-3.013-7.591-3.147-10.603-0.304c-3.012,2.844-3.147,7.591-0.304,10.603
			c11.929,12.632,18.499,29.193,18.499,46.632c0,15.116-4.968,29.072-13.321,40.348c-1.563-0.599-3.251-0.942-5.021-0.942H168.298
			c-7.935-11.105-12.624-24.711-12.624-39.406c0-37.317,30.15-67.678,67.21-67.678c5.831,0,11.614,0.751,17.191,2.232
			c4.001,1.066,8.111-1.318,9.174-5.322c1.064-4.003-1.319-8.11-5.323-9.174c-6.833-1.815-13.913-2.736-21.043-2.736
			c-45.331,0-82.21,37.089-82.21,82.678c0,14.264,3.623,27.686,9.976,39.406H53.75c-2.915-12.671-4.481-25.855-4.481-39.406
			c0-96.357,77.883-174.75,173.615-174.75c75.071,0,139.159,48.21,163.329,115.484h-49.6c-7.39,0-13.402,6.029-13.402,13.439
			v104.529c0,23.191,14.353,43.061,34.59,51.141C337.603,371.708,310.652,391.061,279.762,401.875z M377.928,433.193
			c5.744,0,10.802,4.006,13.506,9.986h-27.011C367.127,437.199,372.185,433.193,377.928,433.193z M385.429,419.256v-69.289
			c12.6-1.745,23.838-7.816,32.191-16.674c8.348,8.852,19.572,14.924,32.163,16.67v69.293
			c-10.438,3.003-18.774,12.131-21.823,23.924h-20.708C404.203,431.387,395.867,422.259,385.429,419.256z M410.948,467.348h-66.039
			v-9.168h66.039V467.348z M490.301,458.18v9.168h-64.353v-9.168H490.301z M470.788,443.18h-27.011
			c2.704-5.98,7.762-9.986,13.505-9.986C463.025,433.193,468.083,437.199,470.788,443.18z M457.282,335.496
			c-12.4,0-23.474-5.769-30.762-14.769c3.905-7.566,6.126-16.147,6.126-25.245V270c0-4.143-3.358-7.5-7.5-7.5
			c-4.142,0-7.5,3.357-7.5,7.5v25.482c0,22.064-17.818,40.014-39.719,40.014c-21.9,0-39.718-17.95-39.718-40.014V192.514h79.437
			v37.485c0,4.143,3.358,7.5,7.5,7.5c4.142,0,7.5-3.357,7.5-7.5v-37.485H497v102.968C497,317.546,479.183,335.496,457.282,335.496z"
			/>
	</g>
</g>
<g>
	<g>
		<path d="M60.557,96.824c-9.614-2.997-10.364-3.747-13.358-13.373c-1.292-4.158-5.084-6.951-9.438-6.951
			c-4.355,0-8.148,2.795-9.437,6.949c-2.994,9.627-3.743,10.377-13.356,13.374c-4.154,1.294-6.946,5.087-6.946,9.439
			c0.001,4.352,2.792,8.146,6.945,9.439c9.615,2.998,10.364,3.748,13.356,13.37c1.29,4.159,5.083,6.954,9.438,6.954
			c4.354,0,8.146-2.793,9.437-6.948c2.995-9.629,3.745-10.379,13.36-13.376c4.152-1.296,6.941-5.089,6.941-9.439
			C67.499,101.912,64.709,98.12,60.557,96.824z M37.763,113.073c-1.804-2.852-3.957-5.005-6.809-6.81
			c2.852-1.805,5.004-3.957,6.808-6.81c1.804,2.853,3.957,5.005,6.809,6.81C41.719,108.068,39.567,110.22,37.763,113.073z"/>
	</g>
</g>
<g>
	<g>
		<path d="M486.459,124.457c-9.614-2.997-10.363-3.747-13.357-13.37c-1.29-4.161-5.083-6.956-9.439-6.956
			c-4.353,0-8.146,2.794-9.437,6.951c-2.994,9.627-3.743,10.377-13.355,13.374c-4.154,1.294-6.946,5.087-6.946,9.438
			c-0.001,4.353,2.791,8.147,6.943,9.44c9.615,2.998,10.364,3.748,13.357,13.374c1.292,4.157,5.084,6.95,9.438,6.95
			c4.355,0,8.148-2.795,9.437-6.947c2.996-9.63,3.745-10.38,13.359-13.377c4.153-1.295,6.943-5.088,6.943-9.439
			C493.402,129.545,490.612,125.752,486.459,124.457z M463.664,140.706c-1.803-2.852-3.957-5.005-6.809-6.81
			c2.852-1.805,5.004-3.957,6.809-6.81c1.804,2.853,3.956,5.005,6.809,6.81C467.621,135.701,465.469,137.854,463.664,140.706z"/>
	</g>
</g>
<g>
	<g>
		<path d="M413.726,54.108c-12.09-3.768-13.372-5.052-17.139-17.157c-1.355-4.365-5.337-7.298-9.908-7.298
			c-4.569,0-8.551,2.932-9.907,7.295c-3.765,12.108-5.046,13.391-17.139,17.16c-4.36,1.359-7.29,5.342-7.29,9.91
			c0,4.568,2.929,8.55,7.29,9.91c12.092,3.77,13.373,5.052,17.138,17.16c1.357,4.363,5.338,7.295,9.908,7.295
			c4.571,0,8.553-2.933,9.907-7.293c3.768-12.11,5.05-13.394,17.143-17.163c4.358-1.36,7.287-5.342,7.287-9.909
			C421.016,59.451,418.087,55.469,413.726,54.108z M386.68,75.393c-2.759-5.21-6.163-8.614-11.373-11.375
			c5.211-2.761,8.614-6.164,11.373-11.375c2.759,5.211,6.163,8.615,11.372,11.375C392.844,66.779,389.44,70.182,386.68,75.393z"/>
	</g>
</g>
<g>
</g>
<g>
</g>
<g>
</g>
<g>
</g>
<g>
</g>
<g>
</g>
<g>
</g>
<g>
</g>
<g>
</g>
<g>
</g>
<g>
</g>
<g>
</g>
<g>
</g>
<g>
</g>
<g>
</g>
</svg>
