<svg id="Image" height="512" viewBox="0 0 64 64" width="512" xmlns="http://www.w3.org/2000/svg"><g><path d="m59 10h-20c-.572 0-1.031.481-.998 1.057.076 1.334.668 11.695.739 12.943h-3.741c-.553 0-1 .448-1 1v3.101c-2.279.465-4 2.484-4 4.899v13h-2v-14.54c0-4.772-2.735-9.1-7-11.169v-3.291c0-.552-.448-1-1-1h-3v-4h2c.415 0 .289-.065 4.236-2h3.764c1.322 0 1.324-2 0-2h-4c-.415 0-.289.065-4.236 2h-6.764c-1.322 0-1.324 2 0 2h3v4h-3c-.552 0-1 .448-1 1v3.291c-4.265 2.069-7 6.397-7 11.169v19.54c0 .553.448 1 1 1h11v3c0 .553.448 1 1 1h18c.553 0 1-.447 1-1v-3h19c.553 0 1-.447 1-1v-3.43c1.24-.842 2.04-2.226 2.128-3.744l1.87-32.769c.033-.575-.426-1.057-.998-1.057zm-1.059 2-.114 2h-17.654l-.114-2zm-15.941 14v2h-6v-2zm-23-8v2h-6v-2zm-13 32v-18.54c0-4.069 2.366-7.76 6.045-9.46h7.91c3.679 1.7 6.045 5.391 6.045 9.46v14.54h-9c-.552 0-1 .447-1 1v3zm28 4h-16v-6h16zm1-8h-3v-13c0-1.654 1.346-3 3-3h8c1.654 0 3 1.346 3 3v17h-10v-3c0-.553-.447-1-1-1zm19 4h-6v-2h6zm2.132-6.288c-.056.955-.603 1.807-1.424 2.288h-6.708v-13c0-2.414-1.721-4.434-4-4.899v-3.101c0-.552-.447-1-1-1h-2.256c-.006-.105-.488-8.537-.457-8h17.426z"/><path d="m23 37v-6c0-.552-.448-1-1-1h-12c-.552 0-1 .448-1 1v6c0 .553.448 1 1 1h12c.552 0 1-.447 1-1zm-2-1h-10v-4h10z"/></g></svg>