
<svg version="1.1" id="Warstwa_1" xmlns="http://www.w3.org/2000/svg" xmlns:xlink="http://www.w3.org/1999/xlink" x="0px" y="0px"
	 viewBox="0 0 24 24" style="enable-background:new 0 0 24 24;" xml:space="preserve">
<style type="text/css">
	.st0{fill:#FFFFFF;}
</style>
<path class="st0" d="M22.2,7.4c-0.8-0.2-1.4-0.9-1.6-1.7c-0.1-0.4-0.5-0.7-1-0.7H16v1c0,0.4-0.3,0.8-0.8,0.8S14.5,6.4,14.5,6V5H4.4
	c-0.5,0-0.8,0.3-1,0.7C3.2,6.5,2.6,7.2,1.8,7.4C1.3,7.5,1,7.9,1,8.4v7.3c0,0.5,0.3,0.8,0.8,1c0.8,0.2,1.4,0.9,1.6,1.7
	c0.1,0.4,0.5,0.7,1,0.7h10.1v-1c0-0.4,0.3-0.8,0.8-0.8S16,17.6,16,18v1h3.6c0.5,0,0.8-0.3,1-0.7c0.2-0.8,0.8-1.4,1.6-1.7
	c0.4-0.1,0.8-0.5,0.8-1V8.4C23,7.9,22.7,7.5,22.2,7.4z M16,15c0,0.4-0.3,0.8-0.8,0.8s-0.8-0.3-0.8-0.8v-1.5c0-0.4,0.3-0.8,0.8-0.8
	s0.8,0.3,0.8,0.8V15z M16,10.5c0,0.4-0.3,0.8-0.8,0.8s-0.8-0.3-0.8-0.8V9c0-0.4,0.3-0.8,0.8-0.8S16,8.6,16,9V10.5z"/>
</svg>
