<?xml version="1.0" encoding="utf-8"?>
<!-- Generator: Adobe Illustrator 27.1.1, SVG Export Plug-In . SVG Version: 6.00 Build 0)  -->
<svg version="1.1" id="Warstwa_1" xmlns="http://www.w3.org/2000/svg" xmlns:xlink="http://www.w3.org/1999/xlink" x="0px" y="0px"
	 viewBox="0 0 222 187" style="enable-background:new 0 0 222 187;" xml:space="preserve">
<g>
	<path style="fill-rule:evenodd;clip-rule:evenodd;fill:#2D5638;" d="M75.5,11.6c7.3-4.2,16.7-1.7,21,5.6c0.2,0.4,0.5,0.8,0.7,1.3
		c0-0.4,0-0.8,0-1.2C97.1,8.8,104,2,112.5,2c8.5,0,15.4,6.9,15.4,15.4c0,0.5,0,1-0.1,1.4c0.2-0.4,0.4-0.7,0.5-1
		c4.2-7.3,13.6-9.9,21-5.6c7.3,4.2,9.9,13.6,5.6,21c-0.2,0.4-0.5,0.8-0.8,1.2c0.3-0.2,0.7-0.4,1-0.6c7.3-4.2,16.7-1.7,21,5.6
		c4.2,7.3,1.7,16.7-5.6,21c-0.4,0.2-0.8,0.5-1.3,0.7c0.4,0,0.8,0,1.2,0c8.5,0,15.4,6.9,15.4,15.4c0,8.5-6.9,15.4-15.4,15.4
		c-0.5,0-1,0-1.4-0.1c0.4,0.2,0.7,0.4,1,0.6c7.3,4.2,9.9,13.6,5.6,21c-4.2,7.3-13.6,9.9-21,5.6c-0.4-0.2-0.8-0.5-1.2-0.8
		c0.2,0.3,0.4,0.7,0.6,1c4.2,7.3,1.7,16.7-5.6,21c-7.3,4.2-16.7,1.7-21-5.6c-0.2-0.4-0.5-0.8-0.7-1.3c0,0.4,0,0.8,0,1.2
		c0,8.5-6.9,15.4-15.4,15.4c-8.5,0-15.4-6.9-15.4-15.4c0-0.5,0-1,0.1-1.4c-0.2,0.4-0.4,0.7-0.5,1c-4.2,7.3-13.6,9.9-21,5.6
		c-7.3-4.2-9.9-13.6-5.6-21c0.2-0.4,0.5-0.8,0.8-1.2c-0.3,0.2-0.7,0.4-1,0.6c-7.3,4.2-16.7,1.7-21-5.6c-4.2-7.3-1.7-16.7,5.6-21
		c0.4-0.2,0.8-0.5,1.3-0.7c-0.4,0-0.8,0-1.2,0c-8.5,0-15.4-6.9-15.4-15.4s6.9-15.4,15.4-15.4c0.5,0,1,0,1.4,0.1
		c-0.3-0.2-0.7-0.4-1-0.5c-7.3-4.2-9.9-13.6-5.6-21c4.2-7.3,13.6-9.9,21-5.6c0.4,0.2,0.8,0.5,1.2,0.8c-0.2-0.3-0.4-0.7-0.6-1
		C65.7,25.2,68.2,15.8,75.5,11.6L75.5,11.6z"/>
	<path style="fill-rule:evenodd;clip-rule:evenodd;fill:#8DB742;" d="M102.9,39.8c0.2-0.1,0.4-0.1,0.6-0.2l0.1,0
		c0.5-0.1,1.1-0.2,1.6-0.3l0.1,0c0.2,0,0.4-0.1,0.7-0.1l0.2,0c1.4-0.2,2.8-0.4,4.2-0.4l0.7,0l-0.1,0.6
		c-1.7,18.6-16.9,33.1-35.6,33.9l-0.7,0l0.1-0.6c0.1-1.4,0.3-2.8,0.6-4.1l0-0.2c0-0.2,0.1-0.4,0.1-0.6l0-0.2
		c0.1-0.5,0.3-1.1,0.4-1.6l0-0.1c0.1-0.2,0.1-0.5,0.2-0.7l0.1-0.2c0.1-0.2,0.1-0.4,0.2-0.6l0.1-0.2c0.1-0.2,0.1-0.4,0.2-0.6l0.1-0.2
		c0.1-0.2,0.1-0.4,0.2-0.6c0-0.1,0-0.1,0.1-0.2c0.1-0.2,0.2-0.5,0.3-0.7l0,0c0.1-0.3,0.2-0.5,0.3-0.8l0,0c0.1-0.2,0.2-0.5,0.3-0.7
		l0.1-0.2c0.1-0.2,0.2-0.4,0.3-0.5l0.1-0.2c0.1-0.2,0.2-0.3,0.3-0.5l0.1-0.2c0.1-0.2,0.2-0.3,0.3-0.5l0.1-0.2
		c0.1-0.2,0.2-0.4,0.3-0.6l0-0.1c0.3-0.5,0.5-0.9,0.8-1.4l0.1-0.2c0.1-0.2,0.2-0.3,0.3-0.5l0.1-0.2c0.1-0.2,0.2-0.3,0.3-0.5l0.1-0.2
		c0.1-0.2,0.2-0.3,0.3-0.5l0.1-0.2c0.1-0.2,0.3-0.4,0.4-0.5l0.1-0.1c0.3-0.4,0.7-0.8,1-1.2l0.1-0.1c0.1-0.2,0.3-0.3,0.4-0.5l0.2-0.2
		c0.1-0.1,0.2-0.3,0.4-0.4l0.2-0.2c0.1-0.1,0.3-0.3,0.4-0.4l0.2-0.2c0.1-0.1,0.3-0.3,0.4-0.4l0.1-0.1c0.4-0.4,0.8-0.7,1.1-1.1
		l0.1-0.1c0.2-0.1,0.3-0.3,0.5-0.4l0.1-0.1c0.1-0.1,0.3-0.3,0.4-0.4l0.2-0.2c0.1-0.1,0.3-0.2,0.4-0.3l0.2-0.2
		c0.2-0.1,0.3-0.2,0.5-0.4l0.1-0.1c0.2-0.1,0.4-0.3,0.6-0.4l0,0c0.2-0.2,0.4-0.3,0.7-0.5l0.1-0.1c0.2-0.1,0.4-0.3,0.6-0.4l0.2-0.1
		c0.2-0.1,0.3-0.2,0.5-0.3l0.2-0.1c0.2-0.1,0.3-0.2,0.5-0.3L93,44c0.2-0.1,0.3-0.2,0.5-0.3l0.2-0.1c0.2-0.1,0.4-0.2,0.6-0.3l0.1,0
		c0.2-0.1,0.5-0.3,0.7-0.4l0,0c0.2-0.1,0.4-0.2,0.7-0.3l0.2-0.1c0.2-0.1,0.4-0.2,0.5-0.3l0.2-0.1c0.2-0.1,0.3-0.2,0.5-0.2l0.2-0.1
		c0.2-0.1,0.3-0.1,0.5-0.2l0.2-0.1c0.2-0.1,0.4-0.2,0.6-0.2l0.1,0c0.5-0.2,1-0.4,1.5-0.5l0.2-0.1c0.2-0.1,0.4-0.1,0.6-0.2l0.2-0.1
		c0.2-0.1,0.4-0.1,0.6-0.2l0.2-0.1c0.2-0.1,0.4-0.1,0.6-0.2C102.8,39.8,102.9,39.8,102.9,39.8L102.9,39.8z M75.6,80
		c18.2,0.9,33.2,14.9,35.4,33l0.1,0.7l-0.7,0c-1.4-0.1-2.8-0.2-4.1-0.4l-0.2,0c-0.2,0-0.5-0.1-0.7-0.1l-0.1,0
		c-0.8-0.1-1.6-0.3-2.4-0.5l-0.1,0c-0.2-0.1-0.5-0.1-0.7-0.2l-0.1,0c-0.2-0.1-0.4-0.1-0.6-0.2l-0.1,0c-0.2-0.1-0.4-0.1-0.6-0.2
		l-0.1,0c-0.8-0.2-1.5-0.5-2.3-0.8l0,0c-0.2-0.1-0.5-0.2-0.7-0.3l-0.1,0c-0.2-0.1-0.4-0.2-0.6-0.3l-0.1-0.1
		c-0.2-0.1-0.4-0.2-0.6-0.3l-0.1-0.1c-0.7-0.3-1.4-0.7-2.1-1.1l0,0c-0.2-0.1-0.4-0.2-0.6-0.4l-0.1-0.1c-0.2-0.1-0.4-0.2-0.5-0.3
		l-0.1-0.1c-0.2-0.1-0.4-0.2-0.6-0.4l-0.1-0.1c-0.7-0.4-1.3-0.9-1.9-1.4l-0.1-0.1c-0.2-0.1-0.4-0.3-0.5-0.4l-0.1-0.1
		c-0.2-0.1-0.3-0.3-0.5-0.4l-0.1-0.1c-0.2-0.1-0.3-0.3-0.5-0.4l-0.1-0.1c-0.2-0.2-0.4-0.3-0.6-0.5l0,0c-0.4-0.4-0.8-0.7-1.2-1.1
		l-0.1-0.1c-0.2-0.2-0.3-0.3-0.5-0.5l-0.1-0.1c-0.1-0.1-0.3-0.3-0.4-0.5l-0.1-0.1c-0.1-0.2-0.3-0.3-0.4-0.5l-0.1-0.1
		c-0.2-0.2-0.3-0.4-0.5-0.5l0,0c-0.3-0.4-0.7-0.8-1-1.2l-0.1-0.1c-0.1-0.2-0.3-0.4-0.4-0.5l-0.1-0.1c-0.1-0.2-0.2-0.3-0.4-0.5
		L81.8,98c-0.1-0.2-0.2-0.3-0.4-0.5l-0.1-0.1c-0.1-0.2-0.3-0.4-0.4-0.6l0,0c-0.3-0.4-0.6-0.9-0.8-1.3L80,95.3
		c-0.1-0.2-0.2-0.4-0.3-0.6l-0.1-0.1c-0.1-0.2-0.2-0.4-0.3-0.5l-0.1-0.2c-0.1-0.2-0.2-0.4-0.3-0.5l-0.1-0.2
		c-0.1-0.2-0.2-0.4-0.3-0.6l0-0.1c-0.2-0.5-0.5-1-0.7-1.5l0-0.1c-0.1-0.2-0.2-0.4-0.3-0.6l-0.1-0.2c-0.1-0.2-0.2-0.4-0.2-0.6
		l-0.1-0.2c-0.1-0.2-0.1-0.4-0.2-0.6l-0.1-0.2c-0.1-0.2-0.2-0.5-0.2-0.7l0-0.1c-0.2-0.5-0.3-1-0.5-1.6l0-0.1
		c-0.1-0.2-0.1-0.5-0.2-0.7l0-0.1c-0.1-0.2-0.1-0.4-0.2-0.6l0-0.2c-0.3-1.3-0.5-2.7-0.7-4.1L75,79.9L75.6,80L75.6,80z"/>
	<path style="fill-rule:evenodd;clip-rule:evenodd;fill:#348C34;" d="M92.9,0c1.7,0,3.2,1.4,3.2,3.2c0,1.7-1.4,3.2-3.2,3.2
		c-1.7,0-3.2-1.4-3.2-3.2C89.7,1.4,91.1,0,92.9,0L92.9,0z"/>
	<path style="fill-rule:evenodd;clip-rule:evenodd;fill:#69A135;" d="M133.4,1.2c1.5,0.9,2,2.8,1.1,4.3c-0.9,1.5-2.8,2-4.3,1.1
		c-1.5-0.9-2-2.8-1.1-4.3C130,0.8,131.9,0.3,133.4,1.2L133.4,1.2z"/>
	<path style="fill-rule:evenodd;clip-rule:evenodd;fill:#A2C03E;" d="M167.9,22.6c0.9,1.5,0.3,3.5-1.2,4.3c-1.5,0.9-3.5,0.3-4.3-1.2
		c-0.9-1.5-0.3-3.5,1.2-4.3C165.1,20.6,167,21.1,167.9,22.6L167.9,22.6z"/>
	<path style="fill-rule:evenodd;clip-rule:evenodd;fill:#C6E35D;" d="M186.4,56.8c0,1.7-1.4,3.2-3.1,3.2c-1.7,0-3.2-1.4-3.2-3.1
		c0-1.7,1.4-3.2,3.1-3.2C185,53.7,186.4,55.1,186.4,56.8L186.4,56.8z"/>
	<path style="fill-rule:evenodd;clip-rule:evenodd;fill:#348C34;" d="M185.9,96.2c-0.8,1.5-2.8,2.1-4.3,1.2
		c-1.5-0.8-2.1-2.8-1.2-4.3c0.8-1.5,2.8-2.1,4.3-1.2C186.2,92.7,186.8,94.6,185.9,96.2L185.9,96.2z"/>
	<path style="fill-rule:evenodd;clip-rule:evenodd;fill:#69A135;" d="M165.6,130.8c-1.5,0.9-3.4,0.4-4.4-1.1
		c-0.9-1.5-0.4-3.4,1.1-4.3c1.5-0.9,3.4-0.4,4.4,1.1C167.6,128,167.1,129.9,165.6,130.8L165.6,130.8z"/>
	<path style="fill-rule:evenodd;clip-rule:evenodd;fill:#A2C03E;" d="M130.4,150.8c-1.7,0-3.2-1.4-3.2-3.1c0-1.7,1.4-3.2,3.1-3.2
		c1.7,0,3.2,1.4,3.2,3.1C133.6,149.3,132.2,150.8,130.4,150.8L130.4,150.8z"/>
	<path style="fill-rule:evenodd;clip-rule:evenodd;fill:#C6E35D;" d="M89.7,150.3c-1.5-0.9-2.1-2.8-1.2-4.3c0.9-1.5,2.8-2.1,4.3-1.2
		c1.5,0.9,2.1,2.8,1.2,4.3C93.2,150.6,91.2,151.2,89.7,150.3L89.7,150.3z"/>
	<path style="fill-rule:evenodd;clip-rule:evenodd;fill:#348C34;" d="M54.9,129.3c-0.9-1.5-0.4-3.5,1.1-4.3c1.5-0.9,3.4-0.4,4.3,1.1
		c0.9,1.5,0.4,3.4-1.1,4.3C57.7,131.4,55.8,130.8,54.9,129.3L54.9,129.3z"/>
	<path style="fill-rule:evenodd;clip-rule:evenodd;fill:#69A135;" d="M35.5,93.8c0-1.7,1.4-3.2,3.2-3.2c1.7,0,3.2,1.4,3.2,3.2
		c0,1.7-1.4,3.2-3.2,3.2C36.9,96.9,35.5,95.5,35.5,93.8L35.5,93.8z"/>
	<path style="fill-rule:evenodd;clip-rule:evenodd;fill:#A2C03E;" d="M36.3,54c0.9-1.5,2.8-2.1,4.3-1.2c1.5,0.9,2.1,2.8,1.2,4.3
		c-0.9,1.5-2.8,2.1-4.3,1.2C36,57.5,35.5,55.5,36.3,54L36.3,54z"/>
	<path style="fill-rule:evenodd;clip-rule:evenodd;fill:#C6E35D;" d="M56.3,20.4c1.5-0.9,3.4-0.4,4.4,1.1c0.9,1.5,0.4,3.4-1.1,4.4
		c-1.5,0.9-3.4,0.4-4.4-1.1C54.3,23.3,54.8,21.3,56.3,20.4L56.3,20.4z"/>
	<path style="fill:#2D5638;" d="M18.8,71.7l0.2,4.7c0.1,2.1-0.3,3.7-1.1,4.8c-0.8,1.1-2,1.7-3.5,1.8c-2.1,0.1-3.6-0.9-4.4-2.9
		c-0.6,2.1-2,3.2-4.2,3.3c-1.6,0.1-2.9-0.5-3.9-1.5c-1-1.1-1.5-2.6-1.6-4.6L0,72.4L18.8,71.7L18.8,71.7z M16.5,74.6l-5.8,0.2l0,1.4
		c0.1,2.7,1.1,4,3.2,4c1.9-0.1,2.7-1.3,2.7-3.7L16.5,74.6L16.5,74.6z M8.5,74.9l-6.1,0.2L2.5,77c0.1,2.4,1.1,3.6,3,3.5
		c1,0,1.8-0.4,2.3-1.1c0.5-0.7,0.8-1.7,0.7-2.9L8.5,74.9L8.5,74.9z M20.8,95.1l1,3.5c0.5,1.8,0.6,3.2,0.4,4.2
		c-0.2,0.9-0.6,1.7-1.3,2.4c-0.7,0.7-1.5,1.2-2.6,1.4c-1.2,0.3-2.3,0.2-3.4-0.3c-1.1-0.5-1.9-1.4-2.5-2.6l-6,7.6L4.7,109l7.1-8.5
		l-8.3,2.3l-1-2.6L20.8,95.1L20.8,95.1z M19.2,98.5l-5.7,1.6l0.3,1c0.3,1.2,0.8,2,1.5,2.5c0.7,0.5,1.5,0.6,2.4,0.3
		c1.9-0.5,2.4-2,1.8-4.4L19.2,98.5L19.2,98.5z M32.9,122.9l-11.1,18.6l-2-1.9l4.5-7.3l-3.8-6l-8.6,0.8l-0.7-2.4L32.9,122.9
		L32.9,122.9z M28.5,125.5l-5.4,0.5l2.6,4.1L28.5,125.5L28.5,125.5z M44.7,139l-3.3,16.8l16.1-5.7l-11,16l-2.4-1.8l6.9-9.5
		l-12.8,4.4l2.6-13.3l-8.6,8.1l-1.8-1.9L44.7,139L44.7,139z M75.5,159.7l1,21.6l-2.7-0.5l-0.3-8.6l-6.4-2.9l-6.7,5.5l-1.9-1.6
		L75.5,159.7L75.5,159.7z M73.3,164.3l-4.2,3.4l4.4,2L73.3,164.3L73.3,164.3z M105.2,167.7l5.7,13.1l2.5-6.3l-3.4-7l2.9-0.1l1.8,4.1
		l1.6-4.2l2.6-0.1l-2.8,7l2.9,6.4l4.8-13.5l2.8-0.1l-7.4,19.8l-4.5-9.7l-3.8,10l-8.6-19.2L105.2,167.7L105.2,167.7z M162.3,155.5
		l-0.7,2.5c-2.1-0.5-4-0.4-5.7,0.5c-1.8,0.9-3,2.3-3.6,4.1c-0.6,1.8-0.4,3.7,0.5,5.5c0.9,1.8,2.2,3,4.1,3.7c1.8,0.7,3.6,0.5,5.4-0.3
		c1.6-0.8,2.8-2,3.5-3.6l-1.9-3.9l-3.5,1.7l-1.1-2.3l6-3l3.7,7.5c-1.3,2.8-3.1,4.7-5.5,5.9c-2.5,1.3-5.1,1.5-7.6,0.6
		c-2.5-0.9-4.4-2.6-5.7-5.1c-1.1-2.3-1.4-4.7-0.6-7.2c0.8-2.7,2.5-4.7,5.1-6.1c1.3-0.6,2.6-1,3.9-1.1
		C160,154.9,161.2,155,162.3,155.5L162.3,155.5z M175.7,140.2c1.8-1.8,3.8-2.9,6.2-3c3.1-0.2,5.7,0.7,7.8,2.7c1.9,1.8,2.9,4,3.1,6.5
		c0.2,2.8-0.7,5.3-2.8,7.4c-1.8,1.8-3.8,2.8-6.1,3c-3.1,0.2-5.7-0.7-7.9-2.7c-2.1-2.1-3.2-4.6-3-7.7
		C173,144.1,173.9,142,175.7,140.2L175.7,140.2z M177.6,142c-1.4,1.5-2.1,3.1-2,5.1c0.1,1.9,0.8,3.6,2.3,5c1.5,1.4,3.2,2.1,5.1,2.1
		c1.9,0,3.6-0.7,5-2.2c1.4-1.4,2-3.1,2-5.1c-0.1-1.9-0.8-3.6-2.3-5c-1.5-1.4-3.1-2.1-5.1-2.1C180.7,139.8,179,140.5,177.6,142
		L177.6,142z M189.5,123.8l1.8-3.1c0.9-1.6,1.9-2.7,2.7-3.3c0.8-0.5,1.6-0.7,2.6-0.7c1,0,1.9,0.3,2.8,0.8c1.1,0.6,1.8,1.5,2.2,2.6
		c0.4,1.1,0.3,2.3-0.1,3.6l9.6-1l-0.4,2.9l-11.1,0.9l7.5,4.3l-1.2,2.6L189.5,123.8L189.5,123.8z M193,122.6l5.2,3l0.5-0.9
		c0.6-1.1,0.8-2,0.7-2.8c-0.1-0.8-0.6-1.5-1.5-2c-1.7-1-3.1-0.4-4.4,1.8L193,122.6L193,122.6z M201.7,92.7l2.9,0.3
		c-0.6,0.8-1,1.7-1.2,2.6c-0.5,1.9-0.3,3.7,0.6,5.3c0.9,1.6,2.3,2.7,4.2,3.2c2,0.5,3.8,0.3,5.5-0.7c1.7-1,2.8-2.6,3.4-4.7
		c0.2-0.7,0.3-1.4,0.3-2.3l2.6,1.3c-0.1,0.8-0.2,1.3-0.3,1.6c-0.8,3.1-2.3,5.3-4.5,6.7c-2.2,1.4-4.7,1.7-7.6,1
		c-2.6-0.7-4.6-2.1-5.9-4.3c-1.3-2.2-1.6-4.7-0.9-7.4C200.9,94.5,201.2,93.7,201.7,92.7L201.7,92.7z M202.9,80.3l0.3-9.2l2.6-0.6
		l-0.2,7.1l5.2,0.2l0.2-5.6l2.6,0.1l-0.2,5.6l5.7,0.2l0.3-7.9l2.6,1.1l-0.3,9.7L202.9,80.3L202.9,80.3z"/>
	<path style="fill-rule:evenodd;clip-rule:evenodd;fill:#FEFEFE;" d="M118.5,120.5c0.1-1,0.1-2,0.1-3.1c0-18.1-10.8-33.8-26.3-40.8
		c15.5-7,26.3-22.7,26.3-40.8c0-1.4-0.1-2.7-0.2-4c-1.9-0.3-3.9-0.4-5.9-0.4l0,0h0h0h0h0h0h0l0,0h0h0c-0.3,0-0.7,0-1,0
		c-0.2,0-0.3,0-0.5,0l-0.4,0v0c-1.2,0-2.5,0.2-3.7,0.3l0,0c-0.2,0-0.5,0.1-0.7,0.1l0,0c-1.1,0.1-2.1,0.3-3.2,0.6l-0.1,0
		c-0.3,0.1-0.6,0.1-0.9,0.2l-0.1,0c-0.3,0.1-0.6,0.2-0.9,0.2l-0.1,0c-1,0.3-2,0.6-3,0.9l-0.1,0c-0.3,0.1-0.5,0.2-0.8,0.3l-0.2,0.1
		c-0.3,0.1-0.5,0.2-0.8,0.3l-0.2,0.1c-0.3,0.1-0.6,0.2-0.9,0.4l0,0c-0.6,0.3-1.3,0.6-1.9,0.9c-0.1,0-0.1,0.1-0.2,0.1
		c-0.2,0.1-0.5,0.2-0.7,0.4l-0.3,0.1c-0.2,0.1-0.4,0.2-0.7,0.3l-0.2,0.1c-0.2,0.1-0.5,0.3-0.7,0.4l-0.2,0.1c-0.6,0.3-1.1,0.7-1.7,1
		c-0.1,0-0.2,0.1-0.2,0.2c-0.2,0.1-0.4,0.3-0.6,0.4c-0.1,0.1-0.2,0.1-0.3,0.2c-0.2,0.1-0.4,0.2-0.5,0.4c-0.1,0.1-0.2,0.1-0.3,0.2
		c-0.2,0.1-0.4,0.3-0.5,0.4c-0.1,0.1-0.2,0.1-0.3,0.2c-0.2,0.2-0.4,0.3-0.6,0.5c-0.1,0-0.1,0.1-0.2,0.1c-0.2,0.2-0.5,0.4-0.7,0.6
		c-0.1,0.1-0.2,0.2-0.3,0.2c-0.1,0.1-0.3,0.3-0.4,0.4c-0.1,0.1-0.2,0.2-0.3,0.3c-0.1,0.1-0.3,0.2-0.4,0.3c-0.1,0.1-0.2,0.2-0.4,0.3
		c-0.1,0.1-0.2,0.2-0.4,0.3c-0.1,0.1-0.2,0.2-0.4,0.3c-0.1,0.1-0.2,0.2-0.4,0.3c-0.1,0.1-0.2,0.2-0.3,0.3c-0.2,0.2-0.4,0.4-0.6,0.6
		l0,0c-0.1,0.1-0.2,0.3-0.4,0.4c-0.1,0.1-0.2,0.2-0.3,0.3c-0.1,0.1-0.3,0.3-0.4,0.4c-0.1,0.1-0.2,0.2-0.3,0.3
		c-0.1,0.1-0.3,0.3-0.4,0.4c-0.1,0.1-0.2,0.2-0.2,0.3c-0.1,0.2-0.3,0.3-0.4,0.5c-0.1,0.1-0.1,0.2-0.2,0.2c-0.5,0.6-0.9,1.2-1.4,1.8
		l-0.1,0.2c-0.1,0.2-0.3,0.4-0.4,0.6c-0.1,0.1-0.1,0.1-0.2,0.2c-0.1,0.2-0.3,0.4-0.4,0.5L75,51.3c-0.1,0.2-0.3,0.4-0.4,0.6L74.5,52
		c-0.6,0.9-1.1,1.9-1.7,2.8L72.8,55c-0.1,0.2-0.2,0.4-0.3,0.7l-0.1,0.2c-0.1,0.2-0.2,0.5-0.3,0.7l0,0.1c-0.5,1-1,2.1-1.4,3.2l0,0
		c-0.1,0.3-0.2,0.5-0.3,0.8l0,0.1c-0.1,0.3-0.2,0.5-0.3,0.8l0,0.1c-0.5,1.4-0.9,2.8-1.2,4.2l0,0.1c-0.1,0.3-0.1,0.5-0.2,0.8l0,0.1
		c-0.6,3-1,6.1-1,9.4c0,7,1.6,13.6,4.4,19.4l0,0c0.6,1.3,1.3,2.6,2.1,3.8l0,0.1c0.1,0.2,0.3,0.5,0.4,0.7l0.1,0.1
		c0.6,0.9,1.2,1.9,1.9,2.8l0,0.1c0.1,0.2,0.3,0.4,0.4,0.6l0.1,0.2c0.1,0.2,0.3,0.4,0.4,0.5l0.1,0.2c0.2,0.2,0.3,0.4,0.5,0.6l0.1,0.1
		c0.5,0.6,1,1.2,1.5,1.7c0.1,0.1,0.1,0.1,0.2,0.2c0.1,0.1,0.3,0.3,0.4,0.4c0.1,0.1,0.2,0.2,0.3,0.3c0.1,0.1,0.3,0.3,0.4,0.4
		c0.1,0.1,0.2,0.2,0.3,0.3c0.1,0.1,0.3,0.3,0.4,0.4c0.1,0.1,0.2,0.2,0.3,0.3c0.2,0.2,0.5,0.4,0.7,0.7c0.1,0.1,0.2,0.2,0.3,0.3
		c0.1,0.1,0.3,0.2,0.4,0.3c0.1,0.1,0.2,0.2,0.4,0.3c0.1,0.1,0.3,0.2,0.4,0.3c0.1,0.1,0.2,0.2,0.4,0.3c0.1,0.1,0.3,0.2,0.4,0.3
		c0.1,0.1,0.3,0.2,0.4,0.3c0.1,0.1,0.2,0.2,0.3,0.3c0.2,0.2,0.4,0.3,0.6,0.5c0.1,0.1,0.2,0.1,0.3,0.2c0.2,0.1,0.4,0.3,0.6,0.4
		c0.1,0.1,0.2,0.1,0.3,0.2c0.2,0.1,0.3,0.2,0.5,0.3c0.1,0.1,0.2,0.1,0.3,0.2c0.2,0.1,0.4,0.2,0.5,0.3c0.1,0.1,0.2,0.1,0.3,0.2
		c0.2,0.1,0.4,0.2,0.6,0.4c0.1,0,0.2,0.1,0.2,0.1c0.3,0.2,0.6,0.3,0.9,0.5l0.1,0.1c0.2,0.1,0.5,0.3,0.8,0.4c0.1,0,0.2,0.1,0.3,0.1
		c0.2,0.1,0.4,0.2,0.6,0.3l0.3,0.1c0.2,0.1,0.4,0.2,0.7,0.3l0.2,0.1c0.3,0.1,0.6,0.3,0.8,0.4l0.1,0c0.3,0.1,0.6,0.3,1,0.4l0.1,0
		c0.3,0.1,0.6,0.2,0.9,0.3l0.2,0.1c0.2,0.1,0.5,0.2,0.7,0.3l0.2,0.1c0.3,0.1,0.5,0.2,0.8,0.3l0.2,0.1c0.7,0.2,1.3,0.4,2,0.6l0.1,0
		c0.3,0.1,0.6,0.2,0.9,0.2l0.2,0c0.3,0.1,0.5,0.1,0.8,0.2l0.2,0c0.3,0.1,0.6,0.1,0.9,0.2l0.1,0c0.7,0.1,1.4,0.2,2.1,0.3l0.1,0
		c0.2,0,0.4,0.1,0.7,0.1l0,0c1.2,0.1,2.4,0.2,3.7,0.3v0l0.3,0l0,0l0,0l0.4,0c0.3,0,0.7,0,1,0h0h0l0,0h0h0h0l0,0h0h0h0
		C114.5,120.9,116.5,120.7,118.5,120.5L118.5,120.5z M122.2,32.4c17.2,3.9,30.7,17.7,34.1,35.1h-8c-3.1-13.1-13.2-23.5-26.1-27
		c0.2-1.6,0.2-3.1,0.2-4.7C122.3,34.7,122.2,33.6,122.2,32.4L122.2,32.4z M156.8,71.6c0.1,1.5,0.2,3,0.2,4.5
		c0,21.3-14.9,39.1-34.8,43.7c0-0.8,0.1-1.6,0.1-2.4c0-1.9-0.1-3.8-0.3-5.6c14.6-3.9,25.5-16.6,27.1-32h-39.3v-8.1h39.2h5.4H156.8
		L156.8,71.6z M103.1,40.4c-0.1,0-0.1,0-0.2,0.1c-0.2,0-0.4,0.1-0.6,0.2l-0.2,0.1c-0.2,0.1-0.4,0.1-0.5,0.2l-0.2,0.1
		c-0.2,0.1-0.4,0.1-0.6,0.2l-0.2,0.1c-0.5,0.2-1,0.3-1.5,0.5l-0.1,0c-0.2,0.1-0.4,0.2-0.6,0.2L98.2,42c-0.2,0.1-0.3,0.1-0.5,0.2
		l-0.2,0.1c-0.2,0.1-0.3,0.1-0.5,0.2l-0.2,0.1c-0.2,0.1-0.4,0.2-0.5,0.3L96,43c-0.2,0.1-0.4,0.2-0.7,0.3l0,0
		c-0.2,0.1-0.5,0.2-0.7,0.4l-0.1,0c-0.2,0.1-0.4,0.2-0.6,0.3l-0.2,0.1c-0.2,0.1-0.3,0.2-0.5,0.3l-0.2,0.1c-0.2,0.1-0.3,0.2-0.5,0.3
		L92.4,45c-0.2,0.1-0.3,0.2-0.5,0.3l-0.2,0.1c-0.2,0.1-0.4,0.3-0.6,0.4l-0.1,0.1c-0.2,0.2-0.4,0.3-0.6,0.5l0,0
		c-0.2,0.1-0.4,0.3-0.6,0.4l-0.1,0.1c-0.2,0.1-0.3,0.2-0.5,0.4l-0.2,0.2c-0.1,0.1-0.3,0.2-0.4,0.3l-0.2,0.2
		c-0.1,0.1-0.3,0.2-0.4,0.4l-0.1,0.1c-0.2,0.1-0.3,0.3-0.5,0.4l-0.1,0.1c-0.4,0.4-0.8,0.7-1.1,1.1l-0.1,0.1
		c-0.1,0.1-0.3,0.3-0.4,0.4l-0.2,0.2c-0.1,0.1-0.3,0.3-0.4,0.4L85,51.3c-0.1,0.1-0.2,0.3-0.4,0.4l-0.2,0.2c-0.1,0.2-0.3,0.3-0.4,0.5
		L84,52.4c-0.3,0.4-0.7,0.8-1,1.2l-0.1,0.1c-0.1,0.2-0.3,0.3-0.4,0.5l-0.1,0.2c-0.1,0.1-0.2,0.3-0.3,0.4l-0.1,0.2
		c-0.1,0.2-0.2,0.3-0.3,0.5l-0.1,0.2c-0.1,0.2-0.2,0.3-0.3,0.5l-0.1,0.2c-0.3,0.4-0.6,0.9-0.8,1.3l0,0.1c-0.1,0.2-0.2,0.4-0.3,0.6
		l-0.1,0.2c-0.1,0.2-0.2,0.3-0.3,0.5l-0.1,0.2c-0.1,0.2-0.2,0.3-0.3,0.5L79.1,60c-0.1,0.2-0.2,0.4-0.3,0.5l-0.1,0.2
		c-0.1,0.2-0.2,0.5-0.3,0.7l0,0c-0.1,0.2-0.2,0.5-0.3,0.8l0,0c-0.1,0.2-0.2,0.5-0.3,0.7c0,0.1,0,0.1-0.1,0.2
		c-0.1,0.2-0.1,0.4-0.2,0.6l-0.1,0.2c-0.1,0.2-0.1,0.4-0.2,0.5l-0.1,0.2c-0.1,0.2-0.1,0.4-0.2,0.6L77,65.3c-0.1,0.2-0.1,0.5-0.2,0.7
		l0,0.1c-0.1,0.5-0.3,1-0.4,1.6l0,0.2c0,0.2-0.1,0.4-0.1,0.6l0,0.2c-0.3,1.3-0.5,2.7-0.6,4.1c18.4-0.8,33.3-15.2,35-33.4
		c-1.4,0.1-2.8,0.2-4.1,0.4l-0.2,0c-0.2,0-0.4,0.1-0.6,0.1l-0.1,0c-0.5,0.1-1.1,0.2-1.6,0.3l-0.1,0
		C103.5,40.3,103.3,40.3,103.1,40.4L103.1,40.4z M75.6,80.5c18.1,0.9,32.7,14.7,34.8,32.5c-1.4-0.1-2.7-0.2-4.1-0.4l-0.2,0
		c-0.2,0-0.4-0.1-0.7-0.1l-0.1,0c-0.8-0.1-1.6-0.3-2.4-0.5l-0.1,0c-0.2-0.1-0.5-0.1-0.7-0.2l-0.1,0c-0.2-0.1-0.4-0.1-0.6-0.2l-0.1,0
		c-0.2-0.1-0.4-0.1-0.6-0.2l-0.1,0c-0.8-0.2-1.5-0.5-2.2-0.8l0,0c-0.2-0.1-0.5-0.2-0.7-0.3l-0.1,0c-0.2-0.1-0.4-0.2-0.6-0.3
		l-0.1-0.1c-0.2-0.1-0.4-0.2-0.6-0.3l-0.1-0.1c-0.7-0.3-1.4-0.7-2.1-1.1l0,0c-0.2-0.1-0.4-0.2-0.6-0.4l-0.1-0.1
		c-0.2-0.1-0.4-0.2-0.5-0.3l-0.1-0.1c-0.2-0.1-0.4-0.2-0.6-0.4L92,107c-0.7-0.4-1.3-0.9-1.9-1.3l-0.1-0.1c-0.2-0.1-0.4-0.3-0.5-0.4
		l-0.1-0.1c-0.2-0.1-0.3-0.3-0.5-0.4l-0.1-0.1c-0.2-0.1-0.3-0.3-0.5-0.4l-0.1-0.1c-0.2-0.2-0.4-0.3-0.6-0.5l0,0
		c-0.4-0.3-0.8-0.7-1.1-1.1l-0.1-0.1c-0.2-0.2-0.3-0.3-0.5-0.5l-0.1-0.1c-0.1-0.1-0.3-0.3-0.4-0.4l-0.1-0.1
		c-0.1-0.2-0.3-0.3-0.4-0.5l-0.1-0.1c-0.2-0.2-0.3-0.4-0.5-0.5l0,0c-0.3-0.4-0.7-0.8-1-1.2l-0.1-0.1c-0.1-0.2-0.3-0.3-0.4-0.5
		l-0.1-0.1c-0.1-0.2-0.2-0.3-0.4-0.5l-0.1-0.1c-0.1-0.2-0.2-0.3-0.4-0.5L81.8,97c-0.1-0.2-0.3-0.4-0.4-0.6l0,0
		c-0.3-0.4-0.6-0.9-0.8-1.3L80.5,95c-0.1-0.2-0.2-0.4-0.3-0.6l-0.1-0.1c-0.1-0.2-0.2-0.3-0.3-0.5l-0.1-0.2c-0.1-0.2-0.2-0.3-0.3-0.5
		l-0.1-0.2c-0.1-0.2-0.2-0.4-0.3-0.6l0-0.1c-0.2-0.5-0.4-0.9-0.7-1.4l0-0.1c-0.1-0.2-0.2-0.4-0.3-0.6L78,89.9
		c-0.1-0.2-0.2-0.4-0.2-0.6l-0.1-0.2c-0.1-0.2-0.1-0.4-0.2-0.6l-0.1-0.2c-0.1-0.2-0.2-0.4-0.2-0.7l0-0.1c-0.2-0.5-0.3-1-0.5-1.5
		l0-0.1c-0.1-0.2-0.1-0.4-0.2-0.7l0-0.1c-0.1-0.2-0.1-0.4-0.2-0.6l0-0.2C76,83.2,75.8,81.9,75.6,80.5L75.6,80.5z"/>
</g>
</svg>
